<svg id="Layer_1" data-name="Layer 1" xmlns="http://www.w3.org/2000/svg" viewBox="0 0 383.84 115.89"><defs><style>.cls-1,.cls-2{fill:#0072bc;}.cls-1{fill-rule:evenodd;}.cls-3{fill:#999;}</style></defs><title>eclipse logo w-text</title><path class="cls-1" d="M57.95,0a58.58,58.58,0,0,0-6.61.37,57.61,57.61,0,0,0-18,5.11H82.58A57.71,57.71,0,0,0,57.95,0"/><path class="cls-1" d="M66.68,13.14h28q-1.93-1.58-4-3H63.92q-1.44-1.46-3-2.82H29.73a58,58,0,0,0-8.53,5.82H66.68"/><path class="cls-1" d="M72.38,20.8h30q-1.24-1.49-2.58-2.89H70.43q-1.07-1.5-2.21-2.93H19.06a58.27,58.27,0,0,0-5.59,5.82H72.38"/><path class="cls-1" d="M105.92,25.45H75.1q-0.76-1.43-1.58-2.8H12a58,58,0,0,0-3.94,5.82h99.78q-0.91-1.54-1.91-3"/><path class="cls-1" d="M110.25,33H78.55Q78,31.63,77.44,30.31H7a57.69,57.69,0,0,0-2.75,5.82H111.64Q111,34.53,110.25,33"/><path class="cls-1" d="M113.3,40.75H81.08q-0.37-1.41-.8-2.79H3.54a57.52,57.52,0,0,0-1.79,5.82h112.4q-0.39-1.53-.85-3"/><path class="cls-1" d="M83.09,51.44h32.44q-0.16-1.43-.39-2.83H82.71q-0.23-1.5-.52-3H1.32a57.62,57.62,0,0,0-1,5.82H83.09"/><path class="cls-1" d="M115.86,56.08H83.47q-0.07-1.4-.19-2.79H0.19Q0,55.59,0,57.95c0,0.39,0,.77,0,1.15H115.88c0-.38,0-0.77,0-1.15,0-.63,0-1.25,0-1.87"/><path class="cls-1" d="M83.49,63.62q0.06-1.33.08-2.67H0.08a58,58,0,0,0,.59,5.82H115.23c0.16-1,.29-2.09.39-3.14H83.49Z"/><path class="cls-1" d="M82.75,71.38h0Q83,70,83.11,68.6H1a57.57,57.57,0,0,0,1.4,5.82H113.51q0.44-1.5.81-3H82.75Z"/><path class="cls-1" d="M81.22,78.91h0q0.34-1.31.63-2.65H3a57.65,57.65,0,0,0,2.29,5.82H110.64q0.71-1.56,1.34-3.17H81.22Z"/><path class="cls-1" d="M78.76,86.68q0.52-1.36,1-2.76H6.14A57.76,57.76,0,0,0,9.5,89.74h96.9q1-1.5,1.87-3.06H78.76Z"/><path class="cls-1" d="M75.26,94.47Q76,93,76.69,91.58H10.76a58.34,58.34,0,0,0,4.75,5.82h84.87q1.32-1.42,2.55-2.93H75.26Z"/><path class="cls-1" d="M70.65,102q1-1.35,1.85-2.76H17.3a58.36,58.36,0,0,0,6.9,5.82H91.69c1.34-1,2.64-2,3.89-3.06H70.65Z"/><path class="cls-1" d="M64.22,109.76h0q1.35-1.39,2.62-2.86H26.94a57.66,57.66,0,0,0,30.39,9h0.62a57.7,57.7,0,0,0,26-6.13H64.22Z"/><polygon class="cls-2" points="151.31 27.07 151.31 36.15 167.22 36.15 167.22 48.1 151.31 48.1 151.31 57.46 168.09 57.46 168.09 69.41 137.19 69.41 137.19 15.12 168.09 15.12 168.09 27.07 151.31 27.07"/><path class="cls-2" d="M211.55,33.34a15.32,15.32,0,0,0-12.39-6c-8.64,0-14.47,6.63-14.47,15.05s5.9,14.76,14.69,14.76a16.23,16.23,0,0,0,12.17-5.76V68.33c-4.68,1.44-8.06,2.52-12.46,2.52a30.23,30.23,0,0,1-20.38-8c-6-5.4-8.71-12.46-8.71-20.52a28.42,28.42,0,0,1,8-19.87,29.42,29.42,0,0,1,20.67-8.78,33.12,33.12,0,0,1,12.89,2.74V33.34Z"/><polygon class="cls-2" points="229.33 57.46 246.25 57.46 246.25 69.41 215.22 69.41 215.22 15.12 229.33 15.12 229.33 57.46"/><rect class="cls-2" x="249.81" y="15.12" width="14.11" height="54.29"/><path class="cls-2" d="M268.09,15.12h21.6c11.67,0,19.73,5.4,19.73,17.86,0,12.82-6.91,18.43-19.23,18.43h-8v18H268.09V15.12ZM282.21,40h2.38c5.11,0,10.15,0,10.15-6.62,0-6.84-4.68-6.91-10.15-6.91h-2.38V40Z"/><path class="cls-2" d="M342.45,29.09a14.85,14.85,0,0,0-9.36-3.6c-2.59,0-6,1.51-6,4.54s3.82,4.39,6.26,5.18l3.6,1.08c7.56,2.23,13.39,6,13.39,14.83,0,5.4-1.3,10.94-5.62,14.62s-9.94,5.11-15.41,5.11a33.5,33.5,0,0,1-19.08-6.19l6-11.38c3.53,3.1,7.71,5.62,12.53,5.62,3.31,0,6.84-1.66,6.84-5.47s-5.54-5.33-8.57-6.19c-8.86-2.52-14.69-4.83-14.69-15.34,0-11,7.85-18.22,18.72-18.22a37.14,37.14,0,0,1,17,4.46Z"/><polygon class="cls-2" points="367.06 27.07 367.06 36.15 382.98 36.15 382.98 48.1 367.06 48.1 367.06 57.46 383.84 57.46 383.84 69.41 352.95 69.41 352.95 15.12 383.84 15.12 383.84 27.07 367.06 27.07"/><polygon class="cls-3" points="151.77 79.18 156.93 79.18 161.03 89.97 165.37 79.18 170.59 79.18 173.64 99.36 168.39 99.36 166.92 87.74 166.87 87.74 162.02 99.36 159.93 99.36 155.3 87.74 155.25 87.74 153.56 99.36 148.34 99.36 151.77 79.18"/><path class="cls-3" d="M189.89,99.36H185V97.83H185a4.83,4.83,0,0,1-4.15,2,7.06,7.06,0,0,1-6.93-7.34c0-3.93,2.81-7.31,6.88-7.31A5.6,5.6,0,0,1,185,87V85.63h4.87V99.36Zm-11-6.85a3.13,3.13,0,0,0,6.26,0,3.13,3.13,0,0,0-6.26,0"/><path class="cls-3" d="M196.12,87.88h0.05a4.77,4.77,0,0,1,4.44-2.44h0.94v4.68a4,4,0,0,0-2.06-.46c-2.7,0-3.37,1.79-3.37,4.15v5.54h-4.87V85.63h4.87v2.25Z"/><polygon class="cls-3" points="207.37 90.58 212.43 85.63 219.1 85.63 212.22 91.97 219.53 99.36 212.7 99.36 207.37 93.77 207.37 99.36 202.5 99.36 202.5 77.14 207.37 77.14 207.37 90.58"/><path class="cls-3" d="M233.15,93.31H222.9a2.73,2.73,0,0,0,3.05,3.05,2.44,2.44,0,0,0,2.33-1.26H233c-0.78,3.24-3.85,4.71-7,4.71-4.55,0-7.95-2.57-7.95-7.31,0-4.58,3.13-7.33,7.6-7.33,4.77,0,7.52,2.95,7.52,7.63v0.51Zm-4.52-2.81a2.92,2.92,0,0,0-5.65,0h5.65Z"/><polygon class="cls-3" points="239.82 99.36 234.95 99.36 234.95 89.64 233.37 89.64 233.37 85.63 234.95 85.63 234.95 81.51 239.82 81.51 239.82 85.63 242.57 85.63 242.57 89.64 239.82 89.64 239.82 99.36"/><path class="cls-3" d="M249.12,99.36h-4.87V85.63h4.87V99.36Zm0.29-19a2.73,2.73,0,1,1-2.73-2.73,2.74,2.74,0,0,1,2.73,2.73"/><path class="cls-3" d="M255.32,87.39h0.05a4.75,4.75,0,0,1,4.39-2.22c3.69,0,5.17,2.33,5.17,5.7v8.48h-4.87V92.67c0-1.31.21-3.61-2.19-3.61-2,0-2.54,1.47-2.54,3.18v7.12h-4.87V85.63h4.87v1.77Z"/><path class="cls-3" d="M282.34,98c0,5.84-2.89,8.19-7.95,8.19-3.16,0-7.39-1.63-7.82-5.25H272a1.68,1.68,0,0,0,.91,1,3.21,3.21,0,0,0,1.39.32c2.62,0,3.13-1.71,3.13-3.93V97.75a5.71,5.71,0,0,1-4.36,1.87,6.68,6.68,0,0,1-6.77-7c0-4,2.84-7.44,7-7.44a4.69,4.69,0,0,1,4,1.9h0.05V85.63h4.87V98Zm-11-5.62a3.13,3.13,0,0,0,6.26,0,3.13,3.13,0,0,0-6.26,0"/><path class="cls-3" d="M311,88.09c-0.05,2.94-.27,5.46-2.06,8a9.75,9.75,0,0,1-8.33,4c-6.34,0-10.76-4.31-10.76-10.65,0-6.56,4.44-10.87,10.95-10.87a9.38,9.38,0,0,1,9.1,5.65l-5,2.09A4.56,4.56,0,0,0,300.61,83c-3.45,0-5.25,3.29-5.25,6.37s1.87,6.32,5.33,6.32c2.27,0,4-1.18,4.23-3.51h-4.28V88.09H311Z"/><path class="cls-3" d="M317.34,87.88h0.05a4.77,4.77,0,0,1,4.44-2.44h0.94v4.68a3.94,3.94,0,0,0-2.06-.46c-2.7,0-3.37,1.79-3.37,4.15v5.54h-4.87V85.63h4.87v2.25Z"/><path class="cls-3" d="M339.76,92.51c0,4.66-3.86,7.31-8.27,7.31s-8.27-2.62-8.27-7.31,3.86-7.33,8.27-7.33,8.27,2.65,8.27,7.33m-11.4,0a3.13,3.13,0,0,0,6.26,0,3.13,3.13,0,0,0-6.26,0"/><path class="cls-3" d="M345.87,85.63V93c0,1.74.43,3,2.44,3s2.44-1.23,2.44-3V85.63h4.87V93.9c0,4.52-3.19,5.92-7.31,5.92S341,98.42,341,93.9V85.63h4.87Z"/><path class="cls-3" d="M361.56,87.18h0.05a4.88,4.88,0,0,1,4.15-2,7.07,7.07,0,0,1,6.93,7.36c0,4-2.81,7.28-6.88,7.28A5.62,5.62,0,0,1,361.56,98v8.16h-4.87V85.63h4.87v1.55Zm-0.16,5.33a3.13,3.13,0,0,0,6.26,0,3.13,3.13,0,0,0-6.26,0"/></svg>