<?xml version="1.0" encoding="utf-8"?>
<!-- Generator: Adobe Illustrator 21.0.0, SVG Export Plug-In . SVG Version: 6.00 Build 0)  -->
<!DOCTYPE svg PUBLIC "-//W3C//DTD SVG 1.1//EN" "http://www.w3.org/Graphics/SVG/1.1/DTD/svg11.dtd">
<svg version="1.1" xmlns="http://www.w3.org/2000/svg" xmlns:xlink="http://www.w3.org/1999/xlink" x="0px" y="0px"
	 viewBox="0 0 897.8 746.7" style="enable-background:new 0 0 897.8 746.7;" xml:space="preserve">
<style type="text/css">
	.st0{fill:#FFFFFF;}
	.st1{display:none;fill:#FFFFFF;}
</style>
<g id="Layer_1_copy">
	<g>
		<g>
			<path class="st0" d="M165,0c6.5,1.3,13.1,2.3,19.4,4.1c7.7,2.1,15.3,4.6,22.6,7.6c14.5,5.8,28,13.6,39.3,24.4
				c8.2,7.8,16,16.3,22.5,25.6c6.8,9.7,12.1,20.5,17.4,31.2c2.9,5.8,4.7,12.2,6.3,18.5c3.8,14.6,5.7,29.4,5.5,44.5
				c-0.2,13.2-2.2,26.1-5.6,38.9c-4.5,17-11.1,33-21.9,47c-7.2,9.3-14.1,18.9-22.4,27.1c-6.2,6.3-14,11.2-21.7,15.8
				c-7.8,4.7-15.9,9-24.4,12.1c-7.9,2.9-16.3,4.8-24.7,6.1c-31.4,4.6-63.1,1.1-94.6,2.1c-2.1,0.1-4.3,0-6.6,0c0,6.7,0,13,0,20.1
				c1.7,0,3.5,0,5.2,0c24.7,0,49.3-0.3,74,0.1c18,0.3,35.3,3.9,52,11.5c14.4,6.5,28.1,14.2,39.7,24.7c8.5,7.8,16,16.9,22.5,26.4
				c6.5,9.5,11.7,19.9,16.8,30.3c2.8,5.6,4.4,11.8,6.1,17.9c4.1,14.7,5.9,29.6,5.7,44.9c-0.2,13.4-2.2,26.5-5.6,39.4
				c-4.5,16.9-11.9,32.3-21.7,46.9c-9.8,14.6-21.4,27.3-35.8,37c-10.7,7.3-22.3,13.9-34.4,18.2c-14.4,5.2-29.7,7.8-45.4,7.7
				c-49.8-0.2-99.7-0.1-149.5-0.1c-1.6,0-3.3,0-5.7,0c0-2,0-3.8,0-5.5c0-207.3,0-414.6,0-621.9C0.1,1.7,0,0.8,0,0C55,0,110,0,165,0z
				"/>
			<path class="st0" d="M321,8.2c41.8,0,83,0,124.7,0c0,185.1,0,370.2,0,555.5c6.6,0,12.7,0,19.3,0c0-185.1,0-370.2,0-555.4
				c41.8,0,83,0,125,0c0,2.1,0,4,0,5.9c0,199.6,0,399.3,0,598.9c0,4.1,0.5,8.1-3,11.5c-3.1,3-6.1,4.4-10.5,4.4
				c-80.7-0.1-161.3-0.1-242-0.1c-8.6,0-13.4-4.7-13.4-13.5c0-201,0-401.9,0-602.9C321,11.3,321,10,321,8.2z"/>
			<path class="st0" d="M619.1,628.8c0-207.1,0-413.5,0-620.5c1.4-0.1,2.9-0.3,4.3-0.3c52,0,104-0.1,156,0.1c9.5,0,17.9,4,26.1,8.9
				c12.3,7.2,21.1,17.6,29.4,28.6c10,13.4,17.5,28.3,24,43.7c10.1,23.5,17.1,48,22.5,73c3.4,15.5,6.2,31.1,8.4,46.9
				c2.6,18.7,4.9,37.6,5.9,56.4c1.4,25.5,2,51.1,2,76.6c0,16.7-1.2,33.4-3,50c-1.9,18.3-4.5,36.6-8,54.6c-4.2,22-9,43.9-14.9,65.5
				c-5.3,19.4-12.8,38.2-22.2,56c-7.2,13.6-15.3,26.8-26.4,37.6c-6,5.9-12.3,11.8-19.3,16.2c-6.5,4.1-14,6.9-22.1,6.9
				c-53.2,0-106.3,0-159.5,0C621.5,628.9,620.6,628.9,619.1,628.8z M810.8,324.3c-35.1,0-69.8,0-104.5,0c0,6.8,0,13.2,0,19.5
				c35,0,69.6,0,104.5,0C810.8,337.2,810.8,331,810.8,324.3z"/>
			<path class="st1" d="M47.5,694.3c3.1,2.7,6.7,5,9.3,8.2c7.2,8.6,2.2,27.5-12.5,29.2c-12.4,1.4-25.1,1.2-37.9,1.7
				c0-24.5,0-48.1,0-72.9c12.4,0.6,24.8,0.6,37,2c7.9,0.9,12,7.5,13.4,14.8c1.2,6.6-1.9,12.1-7.5,15.9
				C48.5,693.6,47.9,694.1,47.5,694.3z M16.1,725.1c7.6,0,14.5,0.2,21.5-0.1c6.9-0.2,11.6-4.5,12.5-10.7c0.8-5.3-2.6-12.2-7.5-12.9
				c-8.7-1.2-17.5-1.4-26.5-2C16.1,708.6,16.1,716.5,16.1,725.1z M16.1,691.6c0.8,0.2,1.2,0.4,1.5,0.4c5.2,0,10.3,0.3,15.5,0
				c2.7-0.1,5.5-0.7,8-1.6c4.7-1.8,6.6-5.5,6-11.2c-0.6-4.6-2.2-8.8-7.7-9.3c-7.6-0.6-15.3-0.9-23.2-1.4
				C16.1,676.9,16.1,684.1,16.1,691.6z"/>
			<path class="st1" d="M334.6,732.8c-2.9,0-5.4,0-8.2,0c-0.2-2-0.3-3.9-0.5-5.9c-2.5,1.9-4.7,4.5-7.5,5.7c-9,3.8-19.7-0.8-24.3-9.5
				c-4.9-9.3-5-18.8-2-28.6c4.3-14.2,23.6-19.9,32.2-8.8c0.3,0.3,0.8,0.5,1.7,1c0-8.6,0-16.9,0-25.4c3,0,5.6,0,8.6,0
				C334.6,685,334.6,708.7,334.6,732.8z M327,707c-1.3-4.2-2.3-8.4-3.9-12.4c-1.8-4.7-5.9-6.5-10.6-6.6c-4.8-0.2-8.4,2.1-10.7,6.4
				c-4.4,8.7-4.1,17.5,0.2,26c2.5,5,10.1,7.1,15.1,4.7C324.7,721.4,326,714.6,327,707z"/>
			<path class="st1" d="M159.1,686.7c0-8.8,0-17,0-25.5c3,0,5.6,0,8.5,0c0,23.8,0,47.6,0,71.5c-2.9,0-5.5,0-8.4,0
				c-0.1-2-0.2-3.9-0.4-6.7c-5.7,8.2-13.1,9.5-20.9,6.7c-8-2.9-11.9-9.6-13.9-17.8c-1.7-7-0.9-13.7,1.2-20.4
				c3.5-11,15.5-17.3,25.9-13.3C153.7,682.3,155.9,684.5,159.1,686.7z M159.3,705.4c-0.6-2.1-1.3-6.3-2.8-10.3
				c-1.8-4.7-5.9-6.9-10.8-7.2c-5.2-0.3-8.8,2.3-11,6.8c-4.3,8.6-3.9,17.3,0.5,25.6c2.7,5.1,9.9,7.1,15.1,4.6
				C157.7,721.4,158.9,714.7,159.3,705.4z"/>
			<path class="st1" d="M583.9,709c-13.6,0-26.6,0-39.5,0c-0.6,6.4,2.9,12.6,8.1,15.2c6.5,3.2,14.8,2.8,18.7-2.1
				c3.4-4.3,6.7-6.3,11.7-3.3c-2.7,11.8-15.6,17-27.3,14.9c-13.3-2.4-18.5-8.3-20.3-21.1c-1.7-11.3,0.6-22.1,11.5-28.9
				c8.5-5.2,17.2-4.9,25.6-0.2C582.2,688.8,584.1,698.1,583.9,709z M574.9,700.9c-1.4-8.8-7.9-13.5-17.1-13
				c-5.9,0.3-13.6,5.1-13.4,13C554.4,700.9,564.5,700.9,574.9,700.9z"/>
			<path class="st1" d="M442.7,693.8c-3.5,1.1-5.1,2-6.6,1.9c-1.6-0.2-4.1-0.9-4.6-2.1c-3-6.5-9.9-6.7-15.4-4.9
				c-2.1,0.7-5.1,4-4.7,5.2c0.7,2.4,3.2,5,5.6,5.9c5.3,2.2,10.9,3.5,16.4,5c5.7,1.5,9.5,4.9,10.5,10.5c1.1,6-1.4,11.3-6.4,14.6
				c-8.9,6-25.6,6.1-32.6-3.9c-1.7-2.4-2.6-5.5-4-8.6c1.5-0.2,2.8-0.1,3.7-0.6c3.4-1.8,5.2-0.6,6.9,2.7c3.9,7.7,16,9.1,22,2.7
				c2.8-3,2.4-6.3-1.3-7.9c-4.5-1.8-9.4-2.8-13.9-4.6c-4.2-1.6-9-3-12.1-5.9c-7.5-7.2-3.4-19.7,7-22.7c6.9-2,14-2.1,20.1,1.6
				C436.7,685.1,439,689.6,442.7,693.8z"/>
			<path class="st1" d="M631.9,693.5c-5.7,3-9.2,3.3-12.3-2.1c-2.5-4.3-11.8-5.1-15.7-1.8c-1.4,1.2-3.2,4.3-2.7,5.2
				c1.3,2.2,3.7,4.2,6.1,5.1c5.2,2,10.6,3.4,15.9,4.8c5.8,1.6,9.6,5.1,10.6,11.1c1.1,6.5-2.2,11.7-7.2,14.7
				c-9,5.3-25.2,5.6-32.2-4.9c-1.6-2.4-2.4-5.3-3.6-8.1c1.5-0.3,2.8-0.2,3.8-0.7c3.6-1.8,5.6-0.4,6.7,3c2.2,7,16.3,8.2,21.1,3.6
				c4-3.8,3.6-7.3-1.5-9.4c-4.1-1.7-8.4-2.6-12.6-4.1c-3.1-1-6.2-2.1-9.1-3.5c-4.8-2.3-7.1-6.2-7.1-11.5c0-5.5,2.7-9.5,7.4-12
				c8.2-4.3,16.7-4.1,24.5,0.6C627.4,685.5,629.3,690,631.9,693.5z"/>
			<path class="st1" d="M280.9,732.8c-3.2,0-5.6,0-8.8,0c0-8.4,0.1-16.7,0-24.9c-0.1-4.1-0.1-8.3-1-12.2c-1.3-5.6-4.5-7.8-9.6-7.8
				c-6.2,0.1-11.4,3.4-12.4,8.5c-0.8,4.3-1,8.8-1.1,13.3c-0.2,7.6,0,15.2,0,23c-3.2,0-5.7,0-8.6,0c0-17,0-33.9,0-51.2
				c2.7,0,5.4,0,8.6,0c0,1.8,0,3.7,0,6c8.9-8.6,19.4-10.1,27.1-3.6c2.8,2.4,5.5,6.6,5.7,10.1C281.3,706.8,280.9,719.6,280.9,732.8z"
				/>
			<path class="st1" d="M737,732.8c-3.1,0-5.6,0-8.5,0c0-17.2,0-34.2,0-51.5c2.6,0,5.2,0,8.2,0c0.2,2,0.3,3.9,0.5,6.1
				c6.2-6.4,13.4-9.2,22-6.4c6.1,1.9,10.6,7.3,10.7,13.8c0.2,12.5,0.1,24.9,0.1,37.8c-2.9,0-5.6,0-8.9,0c0-11,0.1-22,0-32.9
				c-0.1-9.5-5.9-13.6-15-10.8c-6.3,2-9,5.8-9,13.5C736.9,712.4,737,722.3,737,732.8z"/>
			<path class="st1" d="M72.1,681.3c3.1,0,5.7,0,8.8,0c0,10.6,0,20.8,0,31.1c0,9,3.2,13.7,10,13.6c8.5-0.2,13.7-4.4,14-13.6
				c0.3-8.7,0.1-17.3,0.1-26c0-1.6,0-3.3,0-5.1c3,0,5.6,0,8.5,0c0,17.1,0,34,0,51.3c-2.6,0-5.3,0-8.3,0c-0.1-2-0.3-3.9-0.4-5.5
				c-3.8,2-7.6,4.6-11.8,5.9c-10.6,3.3-20.4-3.2-20.9-14.3C71.7,706.4,72.1,694.1,72.1,681.3z"/>
			<path class="st1" d="M382.9,727c-3.9,2.1-7.2,4.6-10.9,5.9c-9.3,3.3-21.3-1.5-21.8-14.3c-0.5-12.3-0.1-24.6-0.1-37.2
				c2.8,0,5.4,0,8.8,0c0,4,0,8,0,12.1c0,6.2,0,12.3,0,18.5c0,9.8,3.1,14.3,10.4,14c8.7-0.4,13.4-4.7,13.6-14.5
				c0.2-8.8,0-17.6,0-26.5c0-1.1,0.1-2.3,0.2-3.7c2.9,0,5.5,0,8.4,0c0,17.1,0,34.1,0,51.4c-2.8,0-5.4,0-8.4,0
				C383.1,730.7,383,728.8,382.9,727z"/>
			<path class="st1" d="M824.7,696.4c-1.8,0.5-3.3,1.4-4.6,1.2c-1.8-0.3-4.3-1.1-4.8-2.4c-2.1-4.9-5.8-7.2-10.7-7.2
				c-5.4,0-10,2-12.3,7.4c-3.6,8.4-3.5,16.8,0.8,24.7c4.4,8.1,17.1,8,21.9,0.1c1.2-2,1.9-5.1,3.6-5.8c1.9-0.8,4.7,0.5,7.2,0.9
				c-1.5,8.9-6,15.1-14.6,17.6c-9.5,2.8-18.1,0.8-24.5-6.9c-5.9-7-6.6-15.7-5.4-24.4c1.1-7.7,3.9-14.6,11.4-18.5
				C806,676.4,821.9,681,824.7,696.4z"/>
			<path class="st1" d="M474.7,680.8c0,3.1,0,5.4,0,7.9c-2.8,0.2-5.5,0.3-8.8,0.5c0,6,0,11.9,0,17.8c0,3.5,0,7,0,10.5
				c0,8.3,0,8.3,8.1,8.8c3.4,6.7,2.7,7.8-4.9,7.6c-8.5-0.2-12-3.6-12.1-12c-0.1-10.8,0-21.6,0-32.6c-2.4-0.2-4.3-0.3-6.6-0.5
				c0-2.3,0-4.7,0-7.4c2-0.2,4-0.3,6.4-0.5c1.1-6.4-2.9-15.6,8.8-16.7c0,5.2,0,10.7,0,16.7C468.9,680.8,471.6,680.8,474.7,680.8z"/>
			<path class="st1" d="M213.4,661.2c3.1,0,5.9,0,9.1,0c0,23.7,0,47.4,0,71.4c-2.9,0-5.8,0-9.1,0C213.4,709,213.4,685.4,213.4,661.2
				z"/>
			<path class="st1" d="M702.4,661.2c3.2,0,6,0,9.1,0c0,23.8,0,47.5,0,71.5c-3,0-5.9,0-9.1,0C702.4,709,702.4,685.3,702.4,661.2z"/>
			<path class="st1" d="M491.9,732.7c-3.2,0-5.8,0-8.6,0c0-17.2,0-34.1,0-51.3c2.4,0,4.7,0,7.4,0c0.1,1.5,0.3,3.2,0.4,4.4
				c2.9-1.9,5.5-4.8,8.7-5.4c3.2-0.7,6.8,0.9,10.5,1.5c-1.4,3.3-2.3,5.5-3.2,7.7c-10.2-4.6-14.8,2.2-15.2,12.5
				C491.6,712.1,491.9,722.1,491.9,732.7z"/>
			<path class="st1" d="M517.3,732.7c0-17.3,0-34.2,0-51.3c2.8,0,5.4,0,8.3,0c0,17,0,34,0,51.3C522.9,732.7,520.3,732.7,517.3,732.7
				z"/>
			<path class="st1" d="M647.2,732.4c0-2.7,0-5.2,0-8c2.7,0,5.3,0,8.6,0c-0.1,8.2,2.2,17-6.5,23.6c-4.4-5.4,6.1-9,1.8-14.4
				C649.7,733.2,648.4,732.7,647.2,732.4z"/>
			<path class="st0" d="M525.7,661.4c0,2.7,0,5.3,0,8.2c-2.6,0-5.2,0-8.2,0c0-2.6,0-5.2,0-8.2C520,661.4,522.6,661.4,525.7,661.4z"
				/>
			<path class="st0" d="M836.4,724.3c2.7,0,5.3,0,8.3,0c0,2.7,0,5.3,0,8.3c-2.5,0-5.2,0-8.3,0C836.4,730,836.4,727.4,836.4,724.3z"
				/>
		</g>
	</g>
</g>
<g id="Layer_3">
	<g>
		<path class="st0" d="M6.3,732.6v-71.3h26.8c5.5,0,9.8,0.7,13.1,2.2c3.3,1.4,5.9,3.7,7.7,6.7c1.9,3,2.8,6.1,2.8,9.4
			c0,3-0.8,5.9-2.5,8.6c-1.7,2.7-4.2,4.9-7.5,6.5c4.3,1.3,7.6,3.4,10,6.5c2.3,3,3.5,6.7,3.5,10.8c0,3.3-0.7,6.4-2.1,9.3
			c-1.4,2.9-3.2,5.1-5.2,6.6c-2.1,1.6-4.7,2.7-7.8,3.5c-3.1,0.8-7,1.2-11.5,1.2H6.3z M15.7,691.2h15.4c4.2,0,7.2-0.3,9-0.8
			c2.4-0.7,4.2-1.9,5.4-3.6c1.2-1.7,1.8-3.7,1.8-6.2c0-2.4-0.6-4.5-1.7-6.3c-1.1-1.8-2.8-3-4.9-3.7c-2.1-0.7-5.7-1-10.9-1H15.7
			V691.2z M15.7,724.2h17.8c3,0,5.2-0.1,6.4-0.3c2.2-0.4,4-1,5.5-1.9s2.7-2.2,3.6-4c0.9-1.7,1.4-3.7,1.4-6c0-2.7-0.7-5-2-6.9
			c-1.4-2-3.3-3.3-5.7-4.1c-2.4-0.8-5.9-1.2-10.4-1.2H15.7V724.2z"/>
		<path class="st0" d="M105.9,732.6V725c-4,5.8-9.5,8.8-16.4,8.8c-3,0-5.9-0.6-8.5-1.8c-2.6-1.2-4.6-2.6-5.9-4.4
			c-1.3-1.8-2.2-3.9-2.7-6.5c-0.4-1.7-0.5-4.4-0.5-8.2v-32h8.8v28.7c0,4.6,0.2,7.7,0.5,9.2c0.6,2.3,1.7,4.1,3.5,5.4
			c1.8,1.3,4,2,6.6,2s5.1-0.7,7.4-2c2.3-1.3,3.9-3.2,4.9-5.5c1-2.3,1.4-5.7,1.4-10.1v-27.7h8.8v51.7H105.9z"/>
		<path class="st0" d="M161,732.6v-6.5c-3.3,5.1-8.1,7.7-14.5,7.7c-4.1,0-7.9-1.1-11.4-3.4c-3.5-2.3-6.1-5.4-8-9.5
			c-1.9-4.1-2.8-8.8-2.8-14c0-5.2,0.9-9.8,2.6-14c1.7-4.2,4.3-7.4,7.7-9.7c3.4-2.2,7.3-3.4,11.5-3.4c3.1,0,5.9,0.7,8.3,2
			c2.4,1.3,4.4,3,5.9,5.1v-25.6h8.7v71.3H161z M133.3,706.8c0,6.6,1.4,11.6,4.2,14.8c2.8,3.3,6.1,4.9,9.9,4.9c3.8,0,7.1-1.6,9.8-4.7
			s4-7.9,4-14.3c0-7.1-1.4-12.3-4.1-15.6c-2.7-3.3-6.1-5-10.1-5c-3.9,0-7.1,1.6-9.8,4.8C134.6,694.9,133.3,699.9,133.3,706.8z"/>
		<path class="st0" d="M213.3,732.6v-71.3h9.4v71.3H213.3z"/>
		<path class="st0" d="M238.3,732.6v-51.7h7.9v7.3c3.8-5.7,9.3-8.5,16.4-8.5c3.1,0,6,0.6,8.6,1.7c2.6,1.1,4.6,2.6,5.9,4.4
			c1.3,1.8,2.2,4,2.7,6.5c0.3,1.6,0.5,4.5,0.5,8.5v31.8h-8.8v-31.4c0-3.6-0.3-6.2-1-8c-0.7-1.8-1.9-3.2-3.6-4.2
			c-1.7-1.1-3.8-1.6-6.1-1.6c-3.7,0-7,1.2-9.7,3.6c-2.7,2.4-4.1,6.9-4.1,13.5v28.2H238.3z"/>
		<path class="st0" d="M327.2,732.6v-6.5c-3.3,5.1-8.1,7.7-14.5,7.7c-4.1,0-7.9-1.1-11.4-3.4c-3.5-2.3-6.1-5.4-8-9.5
			c-1.9-4.1-2.8-8.8-2.8-14c0-5.2,0.9-9.8,2.6-14c1.7-4.2,4.3-7.4,7.7-9.7c3.4-2.2,7.3-3.4,11.5-3.4c3.1,0,5.9,0.7,8.3,2
			c2.4,1.3,4.4,3,5.9,5.1v-25.6h8.7v71.3H327.2z M299.6,706.8c0,6.6,1.4,11.6,4.2,14.8c2.8,3.3,6.1,4.9,9.9,4.9
			c3.8,0,7.1-1.6,9.8-4.7s4-7.9,4-14.3c0-7.1-1.4-12.3-4.1-15.6c-2.7-3.3-6.1-5-10.1-5c-3.9,0-7.1,1.6-9.8,4.8
			C300.9,694.9,299.6,699.9,299.6,706.8z"/>
		<path class="st0" d="M383,732.6V725c-4,5.8-9.5,8.8-16.4,8.8c-3,0-5.9-0.6-8.5-1.8c-2.6-1.2-4.6-2.6-5.9-4.4
			c-1.3-1.8-2.2-3.9-2.7-6.5c-0.4-1.7-0.5-4.4-0.5-8.2v-32h8.8v28.7c0,4.6,0.2,7.7,0.5,9.2c0.6,2.3,1.7,4.1,3.5,5.4
			c1.8,1.3,4,2,6.6,2s5.1-0.7,7.4-2c2.3-1.3,3.9-3.2,4.9-5.5c1-2.3,1.4-5.7,1.4-10.1v-27.7h8.8v51.7H383z"/>
		<path class="st0" d="M401.1,717.2l8.7-1.4c0.5,3.5,1.8,6.1,4.1,8c2.2,1.8,5.3,2.8,9.3,2.8c4,0,7-0.8,9-2.5
			c1.9-1.6,2.9-3.6,2.9-5.8c0-2-0.9-3.5-2.6-4.7c-1.2-0.8-4.2-1.8-9-3c-6.4-1.6-10.9-3-13.4-4.2c-2.5-1.2-4.4-2.8-5.6-4.9
			c-1.3-2.1-1.9-4.4-1.9-6.9c0-2.3,0.5-4.4,1.6-6.4c1.1-2,2.5-3.6,4.3-4.9c1.4-1,3.2-1.9,5.6-2.6c2.4-0.7,4.9-1,7.6-1
			c4.1,0,7.6,0.6,10.7,1.8s5.3,2.7,6.8,4.7c1.5,2,2.5,4.7,3,8l-8.6,1.2c-0.4-2.7-1.5-4.7-3.4-6.2c-1.9-1.5-4.5-2.2-7.9-2.2
			c-4,0-6.9,0.7-8.6,2c-1.7,1.3-2.6,2.9-2.6,4.7c0,1.1,0.4,2.2,1.1,3.1c0.7,0.9,1.8,1.7,3.4,2.3c0.9,0.3,3.5,1.1,7.7,2.2
			c6.2,1.7,10.5,3,13,4.1c2.4,1.1,4.4,2.6,5.8,4.6c1.4,2,2.1,4.5,2.1,7.5c0,2.9-0.9,5.7-2.6,8.2c-1.7,2.6-4.2,4.6-7.4,6
			s-6.8,2.1-10.9,2.1c-6.7,0-11.8-1.4-15.4-4.2C404.3,726.8,402,722.6,401.1,717.2z"/>
		<path class="st0" d="M473.5,724.7l1.3,7.7c-2.5,0.5-4.7,0.8-6.6,0.8c-3.2,0-5.6-0.5-7.4-1.5c-1.8-1-3-2.3-3.7-4
			c-0.7-1.6-1.1-5.1-1.1-10.3v-29.7h-6.4v-6.8h6.4v-12.8l8.7-5.3v18.1h8.8v6.8h-8.8v30.2c0,2.5,0.2,4.1,0.5,4.8
			c0.3,0.7,0.8,1.3,1.5,1.7s1.7,0.6,3,0.6C470.7,725.1,471.9,725,473.5,724.7z"/>
		<path class="st0" d="M482,732.6v-51.7h7.9v7.8c2-3.7,3.9-6.1,5.6-7.3s3.6-1.8,5.6-1.8c3,0,6,0.9,9,2.8l-3,8.1
			c-2.1-1.3-4.3-1.9-6.4-1.9c-1.9,0-3.6,0.6-5.2,1.7c-1.5,1.2-2.6,2.8-3.3,4.8c-1,3.1-1.5,6.5-1.5,10.2v27.1H482z"/>
		<path class="st0" d="M515.3,671.3v-10.1h8.8v10.1H515.3z M515.3,732.6v-51.7h8.8v51.7H515.3z"/>
		<path class="st0" d="M572.8,715.9l9.1,1.1c-1.4,5.3-4.1,9.4-7.9,12.3c-3.9,2.9-8.8,4.4-14.8,4.4c-7.6,0-13.6-2.3-18-7
			c-4.4-4.7-6.6-11.2-6.6-19.6c0-8.7,2.2-15.4,6.7-20.2c4.5-4.8,10.3-7.2,17.4-7.2c6.9,0,12.6,2.4,16.9,7.1s6.6,11.3,6.6,19.9
			c0,0.5,0,1.3,0,2.3h-38.5c0.3,5.7,1.9,10,4.8,13s6.5,4.5,10.8,4.5c3.2,0,6-0.8,8.2-2.5C569.7,722.3,571.5,719.6,572.8,715.9z
			 M544.1,701.8h28.9c-0.4-4.3-1.5-7.6-3.3-9.8c-2.8-3.4-6.4-5.1-10.9-5.1c-4,0-7.4,1.3-10.1,4C545.9,693.7,544.3,697.3,544.1,701.8
			z"/>
		<path class="st0" d="M589.4,717.2l8.7-1.4c0.5,3.5,1.8,6.1,4.1,8c2.2,1.8,5.3,2.8,9.3,2.8c4,0,7-0.8,9-2.5
			c1.9-1.6,2.9-3.6,2.9-5.8c0-2-0.9-3.5-2.6-4.7c-1.2-0.8-4.2-1.8-9-3c-6.4-1.6-10.9-3-13.4-4.2c-2.5-1.2-4.4-2.8-5.6-4.9
			c-1.3-2.1-1.9-4.4-1.9-6.9c0-2.3,0.5-4.4,1.6-6.4c1.1-2,2.5-3.6,4.3-4.9c1.4-1,3.2-1.9,5.6-2.6c2.4-0.7,4.9-1,7.6-1
			c4.1,0,7.6,0.6,10.7,1.8c3.1,1.2,5.3,2.7,6.8,4.7c1.5,2,2.5,4.7,3,8l-8.6,1.2c-0.4-2.7-1.5-4.7-3.4-6.2c-1.9-1.5-4.5-2.2-7.9-2.2
			c-4,0-6.9,0.7-8.6,2c-1.7,1.3-2.6,2.9-2.6,4.7c0,1.1,0.4,2.2,1.1,3.1c0.7,0.9,1.8,1.7,3.4,2.3c0.9,0.3,3.5,1.1,7.7,2.2
			c6.2,1.7,10.5,3,13,4.1c2.5,1.1,4.4,2.6,5.8,4.6c1.4,2,2.1,4.5,2.1,7.5c0,2.9-0.9,5.7-2.6,8.2c-1.7,2.6-4.2,4.6-7.4,6
			s-6.8,2.1-10.9,2.1c-6.7,0-11.8-1.4-15.4-4.2C592.6,726.8,590.3,722.6,589.4,717.2z"/>
		<path class="st0" d="M645,732.6v-10h10v10c0,3.7-0.6,6.6-1.9,8.9c-1.3,2.3-3.4,4-6.2,5.2l-2.4-3.7c1.8-0.8,3.2-2,4.1-3.6
			c0.9-1.6,1.4-3.8,1.5-6.8H645z"/>
		<path class="st0" d="M700.8,732.6v-71.3h9.4v71.3H700.8z"/>
		<path class="st0" d="M725.8,732.6v-51.7h7.9v7.3c3.8-5.7,9.3-8.5,16.4-8.5c3.1,0,6,0.6,8.6,1.7c2.6,1.1,4.6,2.6,5.9,4.4
			c1.3,1.8,2.2,4,2.7,6.5c0.3,1.6,0.5,4.5,0.5,8.5v31.8H759v-31.4c0-3.6-0.3-6.2-1-8c-0.7-1.8-1.9-3.2-3.6-4.2
			c-1.7-1.1-3.8-1.6-6.1-1.6c-3.7,0-7,1.2-9.7,3.6c-2.7,2.4-4.1,6.9-4.1,13.5v28.2H725.8z"/>
		<path class="st0" d="M814.9,713.6l8.6,1.1c-0.9,5.9-3.4,10.6-7.2,13.9c-3.9,3.4-8.6,5-14.3,5c-7.1,0-12.8-2.3-17.1-6.9
			c-4.3-4.6-6.4-11.2-6.4-19.9c0-5.6,0.9-10.5,2.8-14.6c1.8-4.2,4.7-7.3,8.4-9.4s7.9-3.1,12.3-3.1c5.6,0,10.2,1.4,13.8,4.3
			c3.6,2.8,5.9,6.9,6.9,12.1l-8.5,1.3c-0.8-3.5-2.2-6.1-4.3-7.8s-4.5-2.6-7.5-2.6c-4.4,0-8,1.6-10.8,4.7c-2.8,3.2-4.1,8.2-4.1,15
			c0,6.9,1.3,12,4,15.1c2.7,3.1,6.1,4.7,10.4,4.7c3.4,0,6.3-1.1,8.6-3.2C812.8,721.3,814.3,718,814.9,713.6z"/>
		<path class="st0" d="M833.5,732.6v-10h10v10H833.5z"/>
	</g>
</g>
</svg>
