<?xml version="1.0" encoding="utf-8"?>
<!-- Generator: Adobe Illustrator 21.0.0, SVG Export Plug-In . SVG Version: 6.00 Build 0)  -->
<!DOCTYPE svg PUBLIC "-//W3C//DTD SVG 1.1//EN" "http://www.w3.org/Graphics/SVG/1.1/DTD/svg11.dtd">
<svg version="1.1" id="Layer_1" xmlns="http://www.w3.org/2000/svg" xmlns:xlink="http://www.w3.org/1999/xlink" x="0px" y="0px"
	 viewBox="0 0 219.8 54.2" style="enable-background:new 0 0 219.8 54.2;" xml:space="preserve">
<style type="text/css">
	.st0{fill:#C02330;}
	.st1{fill:#C02431;}
	.st2{fill:#C12532;}
	.st3{fill:#A12036;}
	.st4{fill:#C3303C;}
	.st5{fill:#A49D95;}
	.st6{fill:#C12936;}
</style>
<g>
	<path class="st0" d="M17.6,10.6C18.5,8,20,5.9,22.1,4.1C31.5-4,46,0.4,49.2,12.5c2.2,8.2-2.1,16.5-10,19.7c-0.1,0-0.1,0-0.2,0
		c0-0.2,0-0.3,0-0.5c0-1,0-2.1,0-3.1c-0.1-2-0.5-3.9-1.2-5.7c-0.7-1.8-1.7-3.6-2.9-5.1c-1.3-1.6-2.7-3.1-4.6-4.1
		c-1.4-0.8-2.9-1.5-4.3-2.1c-1.1-0.4-2.3-0.7-3.4-0.9c-1.2-0.2-2.5-0.2-3.8-0.2C18.3,10.4,17.9,10.5,17.6,10.6z"/>
	<path class="st1" d="M187.7,17.1c0-0.9,0-1.9,0-2.8c1.4-0.4,2.9-0.8,4.3-1.2c0,0.3,0,0.4,0,0.6c0,9,0,18,0,27
		c0,1.9-0.2,3.8-0.9,5.7c-1.2,3.6-3.9,5.6-7.4,6.7c-2.1,0.7-4.3,0.9-6.6,1.1c-0.3,0-0.5,0-0.7-0.3c-0.5-0.9-1.1-1.8-1.8-2.8
		c0.6,0,1.1-0.1,1.7-0.1c2-0.1,4.1-0.4,6-1c3.1-1,4.7-3.3,5-6.4c0.1-1.3,0.2-2.5,0.2-3.8c0-5.9,0-11.8,0-17.8c0-0.3-0.1-0.7-0.3-0.9
		c-2.5-3.3-5.8-4.8-10-4.2c-2.5,0.4-4.2,1.9-5.1,4.3c-0.7,1.8-1,3.8-1.1,5.7c-0.1,2.7,0,5.3,0.8,7.9c0.6,1.9,1.5,3.6,3.2,4.8
		c2.3,1.6,4.8,1.5,7.3,0.6c1.3-0.4,2.4-1.2,3.4-2.1c0.1-0.1,0.3-0.2,0.5-0.4c0,0.9,0,1.6,0,2.4c0,0.3-0.3,0.6-0.5,0.9
		c-1.4,1.7-3.2,2.6-5.3,3.1c-3.2,0.6-6.1,0.2-8.7-1.9c-1.9-1.5-3-3.5-3.7-5.7c-1.6-5.2-1.6-10.4,0.1-15.6c1.1-3.3,3.1-5.9,6.6-7.1
		c4.6-1.5,8.7-0.7,12.2,2.7c0.2,0.2,0.4,0.5,0.7,0.7C187.6,17.1,187.7,17.1,187.7,17.1z"/>
	<path class="st2" d="M111.7,37.7c1,0.9,2,1.6,3.2,2.1c2,0.8,4.1,1.1,6.2,0.5c1.9-0.5,3.3-1.7,4.2-3.4c1-1.8,1.4-3.8,1.6-5.8
		c0.2-2.6,0.3-5.3-0.3-7.9c-0.5-2.2-1.4-4.2-3.4-5.4c-2.1-1.3-4.4-1.3-6.7-0.7c-2.4,0.6-4.2,2.1-5.8,4c-0.1,0.2-0.1,0.4-0.1,0.7
		c0,9.7,0,19.3,0,29c0,0.5,0,1,0,1.5c0,0.1-0.1,0.4-0.2,0.4c-1.3,0.5-2.7,0.9-4.1,1.4c0-13.1,0-26.2,0-39.4c1.4-0.5,2.8-1,4.3-1.5
		c0,1.5,0,2.9,0,4.5c0.2-0.2,0.4-0.4,0.6-0.5c2-2,4.3-3.4,7.1-3.8c3.8-0.5,7.3,0.2,10,3.2c1.5,1.7,2.2,3.7,2.6,5.9
		c0.8,4.5,0.7,9-0.7,13.4c-0.8,2.5-2.1,4.6-4.1,6.3c-3.8,3.1-9.4,2.9-13-0.2C111.7,40.6,111.5,39.3,111.7,37.7z"/>
	<path class="st3" d="M17.6,10.6c0.4,0,0.7-0.1,1.1-0.1c1.3,0.1,2.5,0.1,3.8,0.2c1.2,0.2,2.3,0.4,3.4,0.9c1.5,0.6,2.9,1.4,4.3,2.1
		c1.8,1,3.3,2.5,4.6,4.1c1.3,1.5,2.2,3.3,2.9,5.1c0.7,1.8,1.1,3.8,1.2,5.7c0,1,0,2.1,0,3.1c0,0.2,0,0.3,0,0.5c0,0,0,0,0,0
		c0,0-0.1,0.1-0.1,0.1c0,0,0,0.1,0,0.1c-1.3,0.3-2.5,0.6-3.8,0.8c-0.6,0.1-1.2,0.1-1.7,0.1c-0.3,0-0.6,0-1,0
		c-6.2-0.4-10.8-3.4-13.9-8.7c-1.5-2.7-2.1-5.6-2-8.7C16.5,14,16.9,12.3,17.6,10.6C17.5,10.6,17.5,10.6,17.6,10.6z"/>
	<path class="st1" d="M99.5,27.3c-0.1-2-0.1-4-0.3-5.9c-0.4-2.8-2.3-4.4-5.2-4.7c-3.4-0.4-6.6,0.4-9.7,1.8c-0.7,0.3-1.3,0.6-2.1,1
		c0-0.8,0-1.5,0-2.3c-0.1-0.6,0.2-1,0.7-1.3c3-1.8,6.1-2.9,9.6-3c2.3,0,4.6,0.2,6.7,1.3c2.4,1.2,3.7,3.2,4.2,5.8
		c0.1,0.8,0.2,1.6,0.2,2.3c0,7.2,0,14.3,0,21.5c-1.4,0-2.9,0-4.4,0c0-0.2,0-0.4,0-0.6c0-4.1,0-8.2,0-12.3c0-0.4-0.1-0.6-0.4-0.7
		c-2.3-1.1-4.7-1.5-7.2-1.6c-1.4,0-2.9,0.1-4.2,0.6c-2.7,1-3.9,3.1-3.8,5.8c0,0.9,0.2,1.8,0.4,2.6c0.7,2,2.3,2.8,4.2,3.1
		c3.6,0.5,6.8-0.5,9.5-3c0.1-0.1,0.1-0.1,0.3-0.2c0,0.9,0,1.7,0,2.5c0,0.2-0.2,0.3-0.3,0.4c-1.9,2.2-4.2,3.4-7,3.7
		c-2.3,0.3-4.5,0.1-6.6-0.8c-2.7-1.1-4.2-3.2-4.6-6c-0.3-1.8-0.3-3.6,0.3-5.4c1-3.1,3.2-4.9,6.2-5.9c4.4-1.4,8.8-1.1,13,0.8
		C99.2,27.2,99.3,27.2,99.5,27.3z"/>
	<path class="st1" d="M140.4,14.6c1.4-0.4,2.7-0.8,4.2-1.2c0,0.2,0,0.4,0,0.6c0,5.8,0,11.6,0,17.4c0,1.7,0.3,3.4,1,5
		c1.1,2.5,3,3.9,5.6,4.3c2,0.3,3.9,0.1,5.7-0.8c2.4-1.3,3.5-3.4,3.9-6c0.2-1,0.2-2,0.2-3c0-4.5,0-8.9,0-13.4c0-0.8,0-1.6,0.1-2.4
		c0-0.2,0.2-0.4,0.3-0.4c1.2-0.4,2.4-0.7,3.7-1.1c0,0.2,0,0.3,0,0.5c0,6.1,0,12.1,0,18.2c0,2.3-0.3,4.5-1.5,6.5
		c-1.5,2.6-3.8,4.1-6.5,4.9c-5,1.4-9.6,0.5-13.6-2.9c-1.6-1.4-2.5-3.3-2.8-5.3c-0.3-1.8-0.4-3.6-0.4-5.4c-0.1-5,0-10,0-15
		C140.4,14.9,140.4,14.7,140.4,14.6z"/>
	<path class="st1" d="M194.3,36.7c3.1,2.9,6.7,4.1,10.8,4c1.6-0.1,3.1-0.5,4.2-1.7c1.9-2,1.6-5-0.7-6.5c-0.7-0.5-1.5-0.9-2.3-1.2
		c-2.3-1-4.7-2-7-3.1c-0.9-0.4-1.8-0.9-2.6-1.5c-1.8-1.2-2.6-3-2.7-5.2c-0.1-3.4,1.4-5.9,4.5-7.2c4.2-1.9,8.3-1.5,12.2,1.2
		c0.2,0.2,0.4,0.3,0.6,0.5c0.9,0.7,1.4,1.6,1.2,2.8c-0.1,0.6,0,1.3,0,2c-0.2-0.3-0.4-0.5-0.6-0.7c-2.2-2.4-5.1-3.3-8.3-3.4
		c-1.1,0-2.3,0.1-3.3,0.6c-1.3,0.7-2,1.7-2.1,3.1c-0.1,1.5,0.6,2.5,1.9,3.2c1.6,0.8,3.2,1.6,4.8,2.3c1.9,0.9,3.8,1.7,5.6,2.6
		c1.8,0.9,3.3,2.2,3.9,4.3c1,4-0.2,7.8-4,10c-5,2.8-12,1.7-15.8-2.5c-0.1-0.2-0.2-0.4-0.3-0.7C194.3,38.7,194.3,37.7,194.3,36.7z"/>
	<path class="st1" d="M78.5,17.8c-0.7-0.6-1.4-1.2-2.2-1.7c-1.5-1.1-3.3-1.5-5.2-1.7c-3.3-0.3-6.3,0.5-8.7,2.8c-1.9,1.8-3,4-3.5,6.6
		c-0.6,3.4-0.4,6.8,1,10.1c2.1,4.6,6.3,6.6,10.8,6.2c2.7-0.3,5.1-1.4,7.3-3.1c0.1-0.1,0.2-0.2,0.3-0.2c0,0,0,0,0.2,0
		c0,0.9,0.1,1.7,0.1,2.5c0,0.1,0,0.1,0,0.2c-0.1,2-0.1,2-1.9,3c-7.9,4.5-17.9,0.8-21-7.8c-1.1-3-1.4-6.1-1.1-9.3
		c0.2-2.7,0.9-5.3,2.3-7.7c2.5-4.1,6.1-6.3,10.8-7c3.9-0.6,7.3,0.7,10.2,3.2c0.4,0.4,0.7,0.7,0.6,1.3C78.6,16,78.6,16.8,78.5,17.8
		C78.6,17.7,78.6,17.7,78.5,17.8z"/>
	<path class="st0" d="M137.7,1.8c0,14.2,0,28.3,0,42.4c-1.4,0-2.8,0-4.3,0c0-0.1,0-0.3,0-0.4c0-2.6,0-5.2,0-7.8c0-9.5,0-18.9,0-28.4
		c0-1.3,0-2.7-0.1-4c0-0.4,0.1-0.6,0.5-0.7C135.1,2.6,136.4,2.2,137.7,1.8z"/>
	<path class="st4" d="M216.9,18.5c-1.5,0-2.8-1.2-2.8-2.7c0-1.5,1.3-2.8,2.8-2.8c1.6,0,2.8,1.2,2.8,2.8
		C219.8,17.3,218.6,18.5,216.9,18.5z M217,18.1c1.3,0,2.4-1.1,2.4-2.4c0-1.3-1.1-2.4-2.4-2.3c-1.3,0-2.4,1.1-2.4,2.4
		C214.6,17.1,215.7,18.1,217,18.1z"/>
	<path class="st0" d="M38.8,32.3c0,0,0.1-0.1,0.1-0.1C38.9,32.3,38.9,32.3,38.8,32.3z"/>
	<path class="st5" d="M35,33.2c-0.6,0.1-1.2,0.1-1.7,0.1c0.1,0,0.1,0,0.2,0c0,0,0.1,0,0.1,0c0,0,0,0,0.1,0.1c0,0.1,0,0.2,0,0.3
		c-0.6,2-1.5,3.8-2.9,5.4c-2.2,2.6-5,4.3-8.5,4.9c-4.4,0.8-8.4-0.2-11.8-3c-2.7-2.2-4.5-5-5.1-8.4C4.3,27.5,5.8,23,9.6,19.4
		c1.8-1.7,3.9-2.8,6.3-3.5c0.1,0,0.3,0,0.4-0.1c0.1-1.8,0.5-3.5,1.1-5.2c-2.6,0.3-5,1-7.3,2.3c-2.9,1.6-5.3,3.8-7.1,6.6
		C0.4,23.6-0.5,28.1,0.3,33c0.8,4.9,3.1,8.9,6.9,12c4.6,3.8,9.9,5.1,15.8,4.1c3.8-0.6,7.1-2.3,9.9-4.9c2.3-2.2,4.1-4.8,5.1-7.8
		c0.4-1.3,0.6-2.7,0.9-4C37.5,32.7,36.2,33,35,33.2z"/>
	<path class="st6" d="M215.9,14.2c0.5,0,1.1,0,1.6,0c0.4,0,0.7,0.2,0.8,0.6c0.1,0.4,0,0.6-0.4,0.8c0.2,0.5,0.3,0.9,0.5,1.5
		c-0.3,0-0.4,0-0.6,0c0.1-1-0.3-1.3-1.3-1.1c0,0.3,0,0.7,0,1.1c-0.2,0-0.4,0-0.6,0C215.9,16.2,215.9,15.2,215.9,14.2z M216.4,15.8
		c0.5-0.2,0.9-0.3,1.2-0.4c0.1,0,0.1-0.5,0-0.5c-0.4-0.2-0.8-0.2-1.2-0.4C216.4,14.9,216.4,15.3,216.4,15.8z"/>
</g>
</svg>
