<?xml version="1.0" encoding="utf-8"?>
<!-- Generator: Adobe Illustrator 21.0.0, SVG Export Plug-In . SVG Version: 6.00 Build 0)  -->
<!DOCTYPE svg PUBLIC "-//W3C//DTD SVG 1.1//EN" "http://www.w3.org/Graphics/SVG/1.1/DTD/svg11.dtd">
<svg version="1.1" xmlns="http://www.w3.org/2000/svg" xmlns:xlink="http://www.w3.org/1999/xlink" x="0px" y="0px"
	 viewBox="0 0 379.5 79" style="enable-background:new 0 0 379.5 79;" xml:space="preserve">
<style type="text/css">
	.st0{fill:#0072BC;}
	.st1{fill:#818587;}
	.st2{fill:none;stroke:#AFB7BA;stroke-width:0.9025;stroke-miterlimit:10;}
</style>
<g id="Layer_3">
	<path class="st0" d="M3,41.9C3,22.1,19.1,6,38.9,6c6.7,0,13,1.8,18.4,5.1C51.3,6.6,43.9,4,35.9,4C16.1,4,0,20.1,0,39.9
		C0,53,7,64.4,17.5,70.7C8.7,64.1,3,53.7,3,41.9z"/>
</g>
<g id="Layer_2">
	<g>
		<path class="st0" d="M30.1,57.8V22.7h14.6v4.9h-7.5v9.5h5.3v5h-5.3v10.8h7.5v4.9H30.1z"/>
		<path class="st0" d="M47.8,46.1V34.5C47.8,26.2,51.2,22,58,22c1.4,0,2.7,0.2,3.8,0.6c1.1,0.4,2,0.9,2.8,1.6
			c0.8,0.7,1.4,1.5,1.9,2.5c0.5,1,0.8,2.1,1.1,3.2c0.2,1.2,0.3,2.4,0.3,3.8v3h-7v-3.2c0-0.6,0-1.2,0-1.6c0-0.5-0.1-1-0.2-1.6
			c-0.1-0.6-0.3-1.1-0.4-1.4c-0.2-0.4-0.5-0.7-0.8-0.9s-0.8-0.4-1.3-0.4c-2.1,0-3.1,1.7-3.1,5.2v15.1c0,3.4,1,5.2,3.1,5.2
			c0.6,0,1.1-0.2,1.5-0.5c0.4-0.4,0.7-0.8,0.9-1.5c0.2-0.6,0.3-1.3,0.4-1.9c0.1-0.6,0.1-1.3,0.1-2.1v-3.6h6.9v3
			c0,1.3-0.1,2.6-0.3,3.7s-0.5,2.2-1,3.3c-0.5,1.1-1.1,2-1.8,2.7c-0.7,0.7-1.7,1.3-2.8,1.8s-2.5,0.7-3.9,0.7c-1.5,0-2.9-0.2-4-0.7
			c-1.2-0.4-2.1-1-2.9-1.8s-1.4-1.6-1.9-2.7c-0.5-1.1-0.8-2.2-1-3.4C47.9,48.8,47.8,47.5,47.8,46.1z"/>
		<path class="st0" d="M72.2,57.8V22.7h7.1v30.2h7v4.9H72.2z"/>
		<path class="st0" d="M89.5,57.8V22.7h7.1v35.1H89.5z"/>
		<path class="st0" d="M101.7,57.8V22.7h8.5c3.1,0,5.3,0.9,6.7,2.6c1.4,1.7,2.1,4.2,2.1,7.4c0,1.6-0.2,3-0.5,4.1s-0.7,2.1-1.3,2.9
			s-1.2,1.4-2.1,1.8c-0.9,0.5-1.8,0.8-2.8,1c-1,0.2-2.2,0.3-3.5,0.3v15H101.7z M108.9,37.8c0.4,0,0.7,0,1-0.1c0.3,0,0.5-0.1,0.8-0.2
			c0.2-0.1,0.4-0.2,0.6-0.3c0.2-0.2,0.3-0.3,0.4-0.4c0.1-0.1,0.2-0.3,0.3-0.6c0.1-0.3,0.1-0.5,0.2-0.7c0-0.2,0.1-0.4,0.1-0.8
			c0-0.4,0-0.7,0-0.9c0-0.2,0-0.6,0-1.1c0-0.1,0-0.2,0-0.3c0-0.5,0-0.9,0-1.1c0-0.3,0-0.6-0.1-1c0-0.4-0.1-0.7-0.2-0.9
			s-0.2-0.4-0.4-0.7c-0.2-0.3-0.4-0.4-0.6-0.6c-0.2-0.1-0.5-0.2-0.9-0.3c-0.4-0.1-0.8-0.1-1.2-0.1V37.8z"/>
		<path class="st0" d="M121.4,47.7l7.2-1.4c0,0.7,0,1.3,0,1.9c0,0.5,0.1,1.1,0.2,1.8s0.3,1.2,0.4,1.6c0.2,0.4,0.5,0.8,0.8,1
			s0.8,0.4,1.2,0.4c1.4,0,2.1-0.9,2.1-2.7c0-2.5-1.4-4.9-4.1-7.3l-2.2-1.9c-0.7-0.6-1.3-1.1-1.7-1.5c-0.4-0.4-0.9-0.9-1.5-1.6
			c-0.6-0.7-1-1.3-1.3-1.9s-0.6-1.4-0.8-2.2c-0.2-0.9-0.3-1.8-0.3-2.8c0-2.8,0.9-5.1,2.7-6.8c1.8-1.7,4.2-2.5,7.2-2.5
			c2.5,0,4.6,0.9,6.3,2.6s2.6,3.9,2.6,6.4l0,0.3c0,0.2,0,0.4,0,0.6l-7.3,1c0-0.1,0-0.4,0-0.7s0-0.6,0-0.8c0-0.5,0-0.9-0.1-1.3
			c-0.1-0.4-0.2-0.9-0.3-1.3c-0.1-0.4-0.4-0.8-0.7-1c-0.3-0.3-0.7-0.4-1.1-0.4c-0.8,0-1.4,0.3-1.8,0.9s-0.6,1.3-0.6,2.2
			c0,0.7,0.1,1.4,0.3,2c0.2,0.6,0.6,1.2,1,1.8c0.5,0.6,0.9,1,1.3,1.4c0.4,0.4,0.9,0.8,1.6,1.3c0.6,0.5,1.1,0.9,1.4,1.2
			c1,0.9,1.8,1.7,2.5,2.5c0.7,0.8,1.3,1.6,1.9,2.6c0.6,1,1.1,2,1.4,3.2s0.5,2.4,0.5,3.7c0,2.5-0.9,4.5-2.6,6
			c-1.8,1.6-3.9,2.3-6.4,2.3c-1.6,0-3.1-0.3-4.3-0.9c-1.3-0.6-2.3-1.4-3-2.4c-0.8-1-1.4-2.2-1.8-3.4
			C121.7,50.5,121.5,49.2,121.4,47.7z"/>
		<path class="st0" d="M144.2,57.8V22.7h14.6v4.9h-7.5v9.5h5.3v5h-5.3v10.8h7.5v4.9H144.2z"/>
		<path class="st1" d="M180.3,57.8V22.7h8.5l3.7,23.4l4-23.4h8.2v35.1h-5.2l-0.2-24.7c-0.4,2.5-1.1,6.6-2,12.3
			c-1,5.7-1.7,9.8-2,12.3H190L185.7,33l-0.2,24.8H180.3z"/>
		<path class="st1" d="M208,57.8l7.6-35.1h6.3l7.6,35.1h-7l-1.4-7.5h-4.6l-1.4,7.5H208z M216.9,45.9h3.6l-1.8-13L216.9,45.9z"/>
		<path class="st1" d="M232.7,57.8V22.7h7.7c1.8,0,3.3,0.2,4.6,0.5c1.3,0.3,2.5,0.9,3.5,1.6c1,0.7,1.8,1.7,2.3,2.9
			c0.5,1.2,0.8,2.6,0.8,4.3c0,0.7,0,1.4-0.1,1.9c-0.1,0.6-0.2,1.2-0.4,2c-0.2,0.7-0.4,1.4-0.8,1.9c-0.3,0.6-0.8,1.1-1.4,1.7
			s-1.3,1-2.2,1.4c2.1,6.7,3.9,12.3,5.5,16.9H245l-4-16.2h-1.2v16.2H232.7z M239.8,37.3h2c0.5,0,1-0.2,1.4-0.5
			c0.4-0.4,0.7-0.8,0.8-1.4c0.2-0.6,0.3-1.1,0.4-1.5c0.1-0.5,0.1-0.9,0.1-1.3c0-0.4,0-0.8-0.1-1.3s-0.2-0.9-0.3-1.5
			c-0.1-0.5-0.4-1-0.7-1.3c-0.3-0.3-0.8-0.5-1.3-0.5h-2.4V37.3z"/>
		<path class="st1" d="M255.5,57.8V22.7h7.1V36l5.5-13.3h7.9l-7.1,14.4l7.7,20.7h-7.4l-5.3-16l-1.3,3.3v12.7H255.5z"/>
		<path class="st1" d="M278.9,57.8V22.7h14.6v4.9H286v9.5h5.3v5H286v10.8h7.5v4.9H278.9z"/>
		<path class="st1" d="M300.4,57.8V28h-5.1v-5.3h17.3V28h-5v29.8H300.4z"/>
		<path class="st1" d="M315.9,57.8V22.7h7.1v35.1H315.9z"/>
		<path class="st1" d="M328.2,57.8V22.7h5.1L341,41V22.7h5.9v35.1h-4.9l-7.7-19.5v19.5H328.2z"/>
		<path class="st1" d="M351.6,46.8V34.5c0-8.3,3.4-12.4,10.3-12.4c1.5,0,2.8,0.2,3.9,0.6c1.1,0.4,2.1,0.9,2.9,1.6
			c0.8,0.7,1.4,1.5,1.9,2.5c0.5,1,0.9,2.1,1.1,3.2c0.2,1.2,0.3,2.4,0.3,3.8v2.1h-6.8v-2.5c0-0.6,0-1.1,0-1.6c0-0.5-0.1-1-0.2-1.5
			s-0.3-1-0.5-1.4c-0.2-0.4-0.5-0.7-1-0.9c-0.4-0.2-0.9-0.4-1.5-0.4c-2.2,0-3.3,1.7-3.3,5.2v15.1c0,3.4,1.1,5.2,3.3,5.2
			c2.2,0,3.2-1.8,3.2-5.4v-2.8h-4v-5.1h11.1v18h-4.9l-0.9-2.5c-0.6,0.9-1.4,1.7-2.6,2.3c-1.1,0.6-2.2,0.9-3.4,0.9
			c-1.3,0-2.4-0.2-3.4-0.7c-1-0.5-1.9-1.1-2.6-1.8c-0.7-0.8-1.2-1.7-1.7-2.7c-0.5-1-0.8-2.1-1-3.1C351.7,49,351.6,47.9,351.6,46.8z"
			/>
	</g>
	<line class="st2" x1="168.6" y1="14.8" x2="168.6" y2="71.1"/>
</g>
</svg>
