<?xml version="1.0" encoding="utf-8"?>
<!-- Generator: Adobe Illustrator 21.0.0, SVG Export Plug-In . SVG Version: 6.00 Build 0)  -->
<!DOCTYPE svg PUBLIC "-//W3C//DTD SVG 1.1//EN" "http://www.w3.org/Graphics/SVG/1.1/DTD/svg11.dtd">
<svg version="1.1" id="Layer_1" xmlns="http://www.w3.org/2000/svg" xmlns:xlink="http://www.w3.org/1999/xlink" x="0px" y="0px"
	 viewBox="0 0 342.2 56.3" style="enable-background:new 0 0 342.2 56.3;" xml:space="preserve">
<style type="text/css">
	.st0{fill:#0072BC;}
	.st1{fill:#818587;}
	.st2{fill:none;stroke:#AFB7BA;stroke-width:0.9025;stroke-miterlimit:10;}
</style>
<g>
	<path class="st0" d="M0,45V9.9h14.6v4.9H7.1v9.5h5.3v5H7.1v10.8h7.5V45H0z"/>
	<path class="st0" d="M17.7,33.3V21.7c0-8.3,3.4-12.5,10.2-12.5c1.4,0,2.7,0.2,3.8,0.6c1.1,0.4,2,0.9,2.8,1.6s1.4,1.5,1.9,2.5
		s0.8,2.1,1.1,3.2c0.2,1.2,0.3,2.4,0.3,3.8v3h-7v-3.2c0-0.6,0-1.2,0-1.6c0-0.5-0.1-1-0.2-1.6c-0.1-0.6-0.3-1.1-0.4-1.4
		c-0.2-0.4-0.5-0.7-0.8-0.9s-0.8-0.4-1.3-0.4C26,14.8,25,16.5,25,20v15.1c0,3.4,1,5.2,3.1,5.2c0.6,0,1.1-0.2,1.5-0.5
		c0.4-0.4,0.7-0.8,0.9-1.5c0.2-0.6,0.3-1.3,0.4-1.9c0.1-0.6,0.1-1.3,0.1-2.1v-3.6h6.9v3c0,1.3-0.1,2.6-0.3,3.7s-0.5,2.2-1,3.3
		s-1.1,2-1.8,2.7c-0.7,0.7-1.7,1.3-2.8,1.8c-1.1,0.5-2.5,0.7-3.9,0.7c-1.5,0-2.9-0.2-4-0.7c-1.2-0.4-2.1-1-2.9-1.8s-1.4-1.6-1.9-2.7
		c-0.5-1.1-0.8-2.2-1-3.4C17.8,36,17.7,34.7,17.7,33.3z"/>
	<path class="st0" d="M42.1,45V9.9h7.1v30.2h7V45C56.2,45,42.1,45,42.1,45z"/>
	<path class="st0" d="M59.4,45V9.9h7.1V45H59.4z"/>
	<path class="st0" d="M71.6,45V9.9h8.5c3.1,0,5.3,0.9,6.7,2.6c1.4,1.7,2.1,4.2,2.1,7.4c0,1.6-0.2,3-0.5,4.1s-0.7,2.1-1.3,2.9
		s-1.2,1.4-2.1,1.8c-0.9,0.5-1.8,0.8-2.8,1S80,30,78.7,30v15H71.6z M78.8,25c0.4,0,0.7,0,1-0.1c0.3,0,0.5-0.1,0.8-0.2
		c0.2-0.1,0.4-0.2,0.6-0.3c0.2-0.2,0.3-0.3,0.4-0.4c0.1-0.1,0.2-0.3,0.3-0.6c0.1-0.3,0.1-0.5,0.2-0.7c0-0.2,0.1-0.4,0.1-0.8
		c0-0.4,0-0.7,0-0.9s0-0.6,0-1.1c0-0.1,0-0.2,0-0.3c0-0.5,0-0.9,0-1.1c0-0.3,0-0.6-0.1-1c0-0.4-0.1-0.7-0.2-0.9
		c-0.1-0.2-0.2-0.4-0.4-0.7c-0.2-0.3-0.4-0.4-0.6-0.6c-0.2-0.1-0.5-0.2-0.9-0.3c-0.4-0.1-0.8-0.1-1.2-0.1C78.8,14.9,78.8,25,78.8,25
		z"/>
	<path class="st0" d="M91.3,34.9l7.2-1.4c0,0.7,0,1.3,0,1.9c0,0.5,0.1,1.1,0.2,1.8s0.3,1.2,0.4,1.6c0.2,0.4,0.5,0.8,0.8,1
		s0.8,0.4,1.2,0.4c1.4,0,2.1-0.9,2.1-2.7c0-2.5-1.4-4.9-4.1-7.3l-2.2-1.9c-0.7-0.6-1.3-1.1-1.7-1.5c-0.4-0.4-0.9-0.9-1.5-1.6
		c-0.6-0.7-1-1.3-1.3-1.9s-0.6-1.4-0.8-2.2c-0.2-0.9-0.3-1.8-0.3-2.8c0-2.8,0.9-5.1,2.7-6.8c1.8-1.7,4.2-2.5,7.2-2.5
		c2.5,0,4.6,0.9,6.3,2.6s2.6,3.9,2.6,6.4v0.3c0,0.2,0,0.4,0,0.6l-7.3,1c0-0.1,0-0.4,0-0.7s0-0.6,0-0.8c0-0.5,0-0.9-0.1-1.3
		c-0.1-0.4-0.2-0.9-0.3-1.3c-0.1-0.4-0.4-0.8-0.7-1c-0.3-0.3-0.7-0.4-1.1-0.4c-0.8,0-1.4,0.3-1.8,0.9s-0.6,1.3-0.6,2.2
		c0,0.7,0.1,1.4,0.3,2c0.2,0.6,0.6,1.2,1,1.8c0.5,0.6,0.9,1,1.3,1.4c0.4,0.4,0.9,0.8,1.6,1.3c0.6,0.5,1.1,0.9,1.4,1.2
		c1,0.9,1.8,1.7,2.5,2.5s1.3,1.6,1.9,2.6c0.6,1,1.1,2,1.4,3.2s0.5,2.4,0.5,3.7c0,2.5-0.9,4.5-2.6,6c-1.8,1.6-3.9,2.3-6.4,2.3
		c-1.6,0-3.1-0.3-4.3-0.9c-1.3-0.6-2.3-1.4-3-2.4c-0.8-1-1.4-2.2-1.8-3.4C91.6,37.7,91.4,36.4,91.3,34.9z"/>
	<path class="st0" d="M114.1,45V9.9h14.6v4.9h-7.5v9.5h5.3v5h-5.3v10.8h7.5V45H114.1z"/>
	<path class="st1" d="M150.2,45V9.9h8.5l3.7,23.4l4-23.4h8.2V45h-5.2l-0.2-24.7c-0.4,2.5-1.1,6.6-2,12.3c-1,5.7-1.7,9.8-2,12.3h-5.3
		l-4.3-24.7L155.4,45H150.2z"/>
	<path class="st1" d="M177.9,45l7.6-35.1h6.3l7.6,35.1h-7l-1.4-7.5h-4.6L185,45H177.9z M186.8,33.1h3.6l-1.8-13L186.8,33.1z"/>
	<path class="st1" d="M202.6,45V9.9h7.7c1.8,0,3.3,0.2,4.6,0.5s2.5,0.9,3.5,1.6s1.8,1.7,2.3,2.9c0.5,1.2,0.8,2.6,0.8,4.3
		c0,0.7,0,1.4-0.1,1.9c-0.1,0.6-0.2,1.2-0.4,2c-0.2,0.7-0.4,1.4-0.8,1.9c-0.3,0.6-0.8,1.1-1.4,1.7s-1.3,1-2.2,1.4
		c2.1,6.7,3.9,12.3,5.5,16.9h-7.2l-4-16.2h-1.2V45C209.7,45,202.6,45,202.6,45z M209.7,24.5h2c0.5,0,1-0.2,1.4-0.5
		c0.4-0.4,0.7-0.8,0.8-1.4c0.2-0.6,0.3-1.1,0.4-1.5c0.1-0.5,0.1-0.9,0.1-1.3c0-0.4,0-0.8-0.1-1.3s-0.2-0.9-0.3-1.5
		c-0.1-0.5-0.4-1-0.7-1.3s-0.8-0.5-1.3-0.5h-2.4v9.3H209.7z"/>
	<path class="st1" d="M225.4,45V9.9h7.1v13.3L238,9.9h7.9l-7.1,14.4l7.7,20.7h-7.4l-5.3-16l-1.3,3.3V45H225.4z"/>
	<path class="st1" d="M248.8,45V9.9h14.6v4.9h-7.5v9.5h5.3v5h-5.3v10.8h7.5V45H248.8z"/>
	<path class="st1" d="M270.3,45V15.2h-5.1V9.9h17.3v5.3h-5V45H270.3z"/>
	<path class="st1" d="M285.8,45V9.9h7.1V45H285.8z"/>
	<path class="st1" d="M298.1,45V9.9h5.1l7.7,18.3V9.9h5.9V45h-4.9l-7.7-19.5V45H298.1z"/>
	<path class="st1" d="M321.5,34V21.7c0-8.3,3.4-12.4,10.3-12.4c1.5,0,2.8,0.2,3.9,0.6s2.1,0.9,2.9,1.6s1.4,1.5,1.9,2.5
		s0.9,2.1,1.1,3.2c0.2,1.2,0.3,2.4,0.3,3.8v2.1h-6.8v-2.5c0-0.6,0-1.1,0-1.6c0-0.5-0.1-1-0.2-1.5s-0.3-1-0.5-1.4
		c-0.2-0.4-0.5-0.7-1-0.9c-0.4-0.2-0.9-0.4-1.5-0.4c-2.2,0-3.3,1.7-3.3,5.2v15.1c0,3.4,1.1,5.2,3.3,5.2c2.2,0,3.2-1.8,3.2-5.4v-2.8
		h-4V27h11.1v18h-4.9l-0.9-2.5c-0.6,0.9-1.4,1.7-2.6,2.3c-1.1,0.6-2.2,0.9-3.4,0.9c-1.3,0-2.4-0.2-3.4-0.7s-1.9-1.1-2.6-1.8
		c-0.7-0.8-1.2-1.7-1.7-2.7s-0.8-2.1-1-3.1C321.6,36.2,321.5,35.1,321.5,34z"/>
</g>
<line class="st2" x1="138.5" y1="0" x2="138.5" y2="56.3"/>
</svg>
