<svg id="Layer_1" data-name="Layer 1" xmlns="http://www.w3.org/2000/svg" xmlns:xlink="http://www.w3.org/1999/xlink" viewBox="0 0 375.54 93.29"><defs><style>.cls-1{fill:none;}.cls-2{clip-path:url(#clip-path);}.cls-3{fill:url(#linear-gradient);}.cls-4{clip-path:url(#clip-path-2);}.cls-5{fill:url(#linear-gradient-2);}</style><clipPath id="clip-path"><path class="cls-1" d="M15.29,75.79a5.08,5.08,0,1,1,5.08,5.08l-.45,0a5.08,5.08,0,0,1-4.63-5.06m54.05,0a5.08,5.08,0,1,1,5.08,5.09l-.45,0a5.08,5.08,0,0,1-4.63-5.07m-54-59A5.08,5.08,0,1,1,20.42,22L20,22a5.08,5.08,0,0,1-4.63-5.07m54.05,0A5.08,5.08,0,1,1,74.47,22L74,22a5.08,5.08,0,0,1-4.63-5.06M86.82,7,8.8,7a2,2,0,0,0-2,1.87l-.07,75.4a2,2,0,0,0,2,2l39,0,39,0a2,2,0,0,0,2-2V65.69L66,65.67A26.2,26.2,0,1,1,66.5,28l22.28,0L88.79,9A2,2,0,0,0,87,7h-.17"/></clipPath><linearGradient id="linear-gradient" x1="-135.85" y1="484.27" x2="-133.07" y2="484.27" gradientTransform="matrix(29.57, 0.03, 0.03, -29.57, 4011.29, 14371.25)" gradientUnits="userSpaceOnUse"><stop offset="0" stop-color="#00aeef"/><stop offset="0.17" stop-color="#009fda"/><stop offset="0.26" stop-color="#0098d1"/><stop offset="0.4" stop-color="#00a8e7"/><stop offset="0.54" stop-color="#00a4e2"/><stop offset="0.63" stop-color="#009fda"/><stop offset="0.72" stop-color="#00a1de"/><stop offset="0.79" stop-color="#00aeef"/><stop offset="1" stop-color="#0097d0"/></linearGradient><clipPath id="clip-path-2"><path class="cls-1" d="M65.73,49.5l.9,6.2H62.3ZM64.5,46.25,55.69,61.7H59l1.89-3.42H67l.51,3.43h3l-2.5-15.47ZM80.61,46a5.94,5.94,0,0,0-4.12,1.28,4.18,4.18,0,0,0-1.42,3.24,3.87,3.87,0,0,0,.47,2,3.8,3.8,0,0,0,1.31,1.35,21.11,21.11,0,0,0,2.65,1.31,11.33,11.33,0,0,1,2.22,1.13,1.46,1.46,0,0,1,.57,1.17,1.69,1.69,0,0,1-.71,1.35,3.66,3.66,0,0,1-2.28.55,3.29,3.29,0,0,1-2.6-.83,3.33,3.33,0,0,1-.49-1.95l-3,.15a5.55,5.55,0,0,0,.56,2.74,4.13,4.13,0,0,0,2.07,1.86,8.35,8.35,0,0,0,3.47.67,6.57,6.57,0,0,0,4.54-1.44A4.53,4.53,0,0,0,85.45,57a3.6,3.6,0,0,0-1.09-2.71,13.06,13.06,0,0,0-3.42-1.87,10.57,10.57,0,0,1-2.3-1.21,1.35,1.35,0,0,1-.52-1.1A1.44,1.44,0,0,1,78.69,49a3.92,3.92,0,0,1,3.93.13,2.43,2.43,0,0,1,.8,1.7l3.06-.13a4.71,4.71,0,0,0-1.65-3.41A5.75,5.75,0,0,0,81.52,46q-.43,0-.91,0m9,.27-.55,2.59h4.55L90.9,61.73h3.19l2.72-12.87h4.5l.55-2.59Zm14.43,0-3.27,15.46h12.14l.55-2.59h-9l.93-4.19h8.1l.55-2.59h-8.07l.78-3.51H115l.55-2.59Zm24.09,0-2.18,10.35-4.2-10.36h-3l-3.27,15.46h3l2.19-10.4,4.19,10.4h3l3.27-15.46Zm6.41,0-3.27,15.46h12.14l.56-2.59h-9l.93-4.19H144l.55-2.58h-8.07l.77-3.51h8.31l.55-2.59Zm17.36,2.6h3.51a4.18,4.18,0,0,1,1.83.26,1.4,1.4,0,0,1,.69,1.27,2.29,2.29,0,0,1-.48,1.37,2.75,2.75,0,0,1-1.32,1,12.37,12.37,0,0,1-3.42.3H151Zm4.25-2.58h-6.89L146,61.78h3.19l1.35-6.4h1.3a3,3,0,0,1,1.59.31,4.7,4.7,0,0,1,1.4,2q1.2,2.77,1.62,4.08h3.43a37.4,37.4,0,0,0-2.38-5.13,6.33,6.33,0,0,0-1.15-1.45,5.67,5.67,0,0,0,3.6-1.58,4.58,4.58,0,0,0,1.19-3.25,4.28,4.28,0,0,0-.61-2.35,3.13,3.13,0,0,0-1.6-1.34,6.31,6.31,0,0,0-1.61-.32c-.36,0-.74,0-1.16,0M307.19,59l-.62,2.93H308a2.79,2.79,0,0,1-.63,1.35,2.24,2.24,0,0,1-1.18.61l-.3,1.4a3.61,3.61,0,0,0,2.48-.9,5.37,5.37,0,0,0,1.39-3l.51-2.42ZM39.53,33.45l-1,4.41h4.19l-4.49,19.4H34.37l-1,4.42,14.87,0,1-4.42H45.37l1.79-7.75h5.9l1-4.42H48.19l1.67-7.23H57.6l-1.09,4.74h5.27l2.12-9.15ZM207.32,48.92h2.29a7.59,7.59,0,0,1,2,.16,1.43,1.43,0,0,1,.7.53,1.56,1.56,0,0,1,.24.91,2.57,2.57,0,0,1-.49,1.53,2.74,2.74,0,0,1-1.33,1,11.47,11.47,0,0,1-3.38.31h-1ZM211,46.38h-6.31L201.4,61.83h3.19l1.25-5.89h2.05a23.53,23.53,0,0,0,2.82-.1,7.71,7.71,0,0,0,2.06-.52,4.73,4.73,0,0,0,1.43-1,5.4,5.4,0,0,0,1.12-1.77,6,6,0,0,0,.46-2.28,4,4,0,0,0-.57-2.18,3.23,3.23,0,0,0-1.55-1.31,5.91,5.91,0,0,0-1.66-.36c-.31,0-.65,0-1,0M370.53,59.06,369.92,62h3l.61-2.92ZM219.33,46.38l-3.27,15.46H228.2l.55-2.59h-9l.92-4.19h8.1l.54-2.58h-8.07L222,49h8.32l.54-2.59Zm20.78-.24A7.81,7.81,0,0,0,233,50.65a10.77,10.77,0,0,0-1.08,4.83,7,7,0,0,0,1.6,5,5.81,5.81,0,0,0,4.45,1.72,7.3,7.3,0,0,0,4.42-1.36,8.25,8.25,0,0,0,2.84-4L242,56.33a4.68,4.68,0,0,1-1.54,2.37,3.62,3.62,0,0,1-2.27.8,2.85,2.85,0,0,1-2.23-1A4.21,4.21,0,0,1,235,55.6a9.07,9.07,0,0,1,.69-3.41,5.45,5.45,0,0,1,1.84-2.51,4.29,4.29,0,0,1,2.47-.8,2.93,2.93,0,0,1,1.94.61,3.3,3.3,0,0,1,1,2l3.06-.29a5.47,5.47,0,0,0-1.83-3.66,5.69,5.69,0,0,0-3.33-1.32c-.25,0-.5,0-.75,0m9.58.27-3.27,15.46h3.19l3.27-15.46Zm12,3.26.9,6.21h-4.33Zm-1.24-3.25-8.8,15.46h3.28l1.89-3.42H263l.51,3.43h3L264,46.42Zm11.55,0-3.27,15.46h11.1l.55-2.59h-7.91l2.72-12.87Zm10.74,0L282.16,49h4.55L284,61.91h3.19L289.91,49h4.5l.55-2.59Zm23.61,0-2.2,3.13-1.48,2c-.35.51-.65,1-.91,1.46-.16-.46-.46-1.22-.92-2.27l-1.93-4.37h-3.41l4.29,9.45-1.27,6h3.19l1.21-5.73L310,46.47ZM194,33.59l-.38,1.75a8,8,0,0,0-5.87-2.12,11.15,11.15,0,0,0-6.76,2.21,9.83,9.83,0,0,0-3.89,6.14,6.91,6.91,0,0,0,.22,4,6.48,6.48,0,0,0,2,2.86,25.49,25.49,0,0,0,4.52,2.71A14.1,14.1,0,0,1,187,53a1.58,1.58,0,0,1,.46,1.58c-.26,1.22-1.15,1.82-2.67,1.82q-3.16,0-3.51-3.69h-6.39l-1.94,9.05h6.39l.4-1.84A9.35,9.35,0,0,0,186,62.18a11.44,11.44,0,0,0,7.24-2.49,10.2,10.2,0,0,0,3.94-6,7.87,7.87,0,0,0-.2-4.31,7.28,7.28,0,0,0-.86-1.74A5.29,5.29,0,0,0,195,46.33a43,43,0,0,0-4.94-3,22.75,22.75,0,0,1-3.27-2,1.22,1.22,0,0,1-.32-1.28,2.18,2.18,0,0,1,2.46-1.77c2,0,3.11,1.11,3.41,3.33h6.34l1.73-8ZM350.86,46.5l-2.18,10.35-4.2-10.36h-3L338.24,62h3l2.19-10.39L347.59,62h3l3.27-15.46Zm12.53-.25a7.81,7.81,0,0,0-7.14,4.51,10.76,10.76,0,0,0-1.08,4.82,7,7,0,0,0,1.6,5,5.81,5.81,0,0,0,4.46,1.72,7.31,7.31,0,0,0,4.43-1.36,8.19,8.19,0,0,0,2.83-4l-3.22-.49a4.69,4.69,0,0,1-1.54,2.37,3.61,3.61,0,0,1-2.27.8,2.84,2.84,0,0,1-2.23-1,4.21,4.21,0,0,1-.89-2.88A9,9,0,0,1,359,52.3a5.47,5.47,0,0,1,1.84-2.51,4.3,4.3,0,0,1,2.48-.8,2.93,2.93,0,0,1,1.93.61,3.24,3.24,0,0,1,1,2l3.06-.29a5.48,5.48,0,0,0-1.83-3.66,5.7,5.7,0,0,0-3.33-1.32q-.36,0-.76,0M326.14,33.7l-1,4.41h4l-4.53,19.4H321l-1,4.42h14.87l1-4.42h-4.1l4.53-19.4h3.11l1-4.41Z"/></clipPath><linearGradient id="linear-gradient-2" x1="-152.74" y1="490.94" x2="-149.97" y2="490.94" gradientTransform="matrix(0.01, -11.53, -11.53, -0.01, 5867.08, -1691.02)" gradientUnits="userSpaceOnUse"><stop offset="0" stop-color="#0081b2"/><stop offset="0.06" stop-color="#0086b9"/><stop offset="0.15" stop-color="#0093cb"/><stop offset="0.23" stop-color="#00a4e2"/><stop offset="0.4" stop-color="#007fae"/><stop offset="0.45" stop-color="#0083b4"/><stop offset="0.51" stop-color="#0090c6"/><stop offset="0.58" stop-color="#00a4e2"/><stop offset="0.71" stop-color="#0094cc"/><stop offset="0.81" stop-color="#0086b8"/><stop offset="1" stop-color="#0097d0"/></linearGradient></defs><title>Artboard 1</title><g class="cls-2"><rect class="cls-3" x="0.04" y="0.04" width="95.51" height="93.21"/></g><g class="cls-4"><rect class="cls-5" x="33.34" y="7.14" width="342.16" height="84.21"/></g></svg>