<?xml version="1.0" encoding="utf-8"?>
<!-- Generator: Adobe Illustrator 21.0.0, SVG Export Plug-In . SVG Version: 6.00 Build 0)  -->
<!DOCTYPE svg PUBLIC "-//W3C//DTD SVG 1.1//EN" "http://www.w3.org/Graphics/SVG/1.1/DTD/svg11.dtd">
<svg version="1.1" id="Layer_1" xmlns="http://www.w3.org/2000/svg" xmlns:xlink="http://www.w3.org/1999/xlink" x="0px" y="0px"
	 viewBox="0 0 356.8 187" style="enable-background:new 0 0 356.8 187;" xml:space="preserve">
<style type="text/css">
	.st0{fill:#0B6CB3;}
</style>
<path class="st0" d="M5.9,183.7c0-11.9,0-23.9,0-35.8c2.7,0,5.5,0,8.2,0c3.2,0,6.4,0,9.5,0c0.6,0,0.8-0.1,0.8-0.7c0-0.1,0-0.3,0-0.4
	c0-35.5,0-71.1,0-106.6c0-0.9-0.2-1.2-1.1-1.2c-5.5,0.1-11.1,0-16.6,0c-0.7,0-0.9-0.2-0.9-0.9c0-11.3,0-22.6,0-34
	c0-0.7,0.2-0.8,0.8-0.8c17.7,0,35.4,0,53.1,0c0.8,0,0.8,0.4,0.8,1c0,21.4,0,42.8,0,64.2c0,1.3-0.2,1.2,1.2,1.2c13.4,0,26.8,0,40.1,0
	c0.8,0,1.1-0.2,1.1-1.1c0-21.4,0-42.8,0-64.2c0-0.9,0.2-1.1,1.1-1.1c27.6,0,55.3-0.2,82.9,0.1c13.3,0.1,24.1,5.8,31.5,17.2
	c3.6,5.5,4.7,11.8,4.7,18.3c0,11.5,0.1,23,0,34.6c0,4.7-1.7,8.9-4,12.9c-2.7,4.6-6.4,8.4-10.8,11.4c-0.6,0.4-0.6,0.6-0.1,1.1
	c16.2,16.1,32.4,32.3,48.6,48.4c0.4,0.4,0.7,0.5,1.2,0.5c18.4,0,36.8,0,55.2,0c0.7,0,0.9-0.2,0.9-0.9c0-13.8,0-27.6,0-41.5
	c0-0.7-0.2-0.9-0.9-0.9c-10.8,0-21.6-0.1-32.4,0c-8.8,0.1-16.2-3.2-22.4-9.2c-4.8-4.6-8.2-10-9.7-16.5c-0.5-1.9-0.7-3.9-0.7-5.9
	c0-12.7,0.1-25.3,0-38c-0.1-6.3,1.8-11.9,5.6-16.8c5.2-6.5,11.9-11.5,20.1-14.1c1.7-0.5,3.4-0.7,5.2-0.7c23.4,0,46.7,0,70.1,0
	c0.8,0,1,0.3,1,1c0,11.2,0,22.5,0,33.7c0,0.8-0.2,1.1-1,1.1c-21.2,0-42.3,0-63.5,0c-0.9,0-1.1,0.2-1.1,1.1c0,9.4,0,18.8,0,28.2
	c0,0.7,0.2,0.9,0.9,0.9c9.3,0,18.6-0.1,27.9,0c14.7,0.2,25.8,6.9,33.2,19.6c2.5,4.4,3.7,9.2,4,14.3c0.4,6,0.1,12.1,0.2,18.1
	c0,8.1,0,16.2,0,24.3c0,6.5-1.3,12.7-4.5,18.4c-5,9-12.3,15.1-22.2,18c-2.5,0.7-5.1,1.1-7.8,1.1c-24.5,0-49.1,0-73.6,0
	c-0.6,0-0.9-0.2-1.3-0.6c-23.7-23.6-47.5-47.1-71.2-70.7c-2.1-2-4.1-4.1-6.2-6.1c-0.3-0.3-0.5-0.7-0.5-1.2c0-11.5,0-22.9,0-34.4
	c0-0.7,0.2-0.9,0.9-0.8c7.4,0,14.7,0,22.1,0c0.8,0,1-0.1,1-1c0-9.5,0-19,0-28.6c0-0.8-0.2-1-1-1c-15.6,0-31.3,0-46.9,0
	c-0.8,0-0.9,0.2-0.9,0.9c0,35.7,0,71.4,0,107.1c0,0.8,0.2,1,1,1c5.7,0,11.3,0,17,0c0.7,0,1,0.1,1,0.9c0,11.3,0,22.7,0,34
	c0,0.7-0.2,0.9-0.9,0.9c-17.6,0-35.1,0-52.7,0c-0.9,0-0.9-0.4-0.9-1.1c0-25.4,0-50.9,0-76.3c0-1.2,0-1.2-1.2-1.2
	c-13.4,0-26.7,0-40.1,0c-0.9,0-1.2,0.2-1.2,1.1c0,25.4,0,50.9,0,76.3c0,0.9-0.1,1.1-1.1,1.1c-17.5,0-35.1,0-52.6,0
	C6.6,183.7,6.2,183.7,5.9,183.7z"/>
</svg>
