<?xml version="1.0" encoding="utf-8"?>
<!-- Generator: Adobe Illustrator 21.0.0, SVG Export Plug-In . SVG Version: 6.00 Build 0)  -->
<!DOCTYPE svg PUBLIC "-//W3C//DTD SVG 1.1//EN" "http://www.w3.org/Graphics/SVG/1.1/DTD/svg11.dtd">
<svg version="1.1" id="Layer_1" xmlns="http://www.w3.org/2000/svg" xmlns:xlink="http://www.w3.org/1999/xlink" x="0px" y="0px"
	 viewBox="0 0 476.4 100.2" style="enable-background:new 0 0 476.4 100.2;" xml:space="preserve">
<style type="text/css">
	.st0{fill:#017CC3;}
	.st1{fill:#FFFFFF;}
</style>
<path class="st0" d="M55.6,100.2H50c-0.4,0-0.7-0.3-0.7-0.7V0.7C49.2,0.3,49.6,0,50,0h41c0.4,0,0.7,0.3,0.7,0.7V64
	C91.8,84.1,75.6,100.2,55.6,100.2z"/>
<path class="st0" d="M41.4,100.2h-5.2C16.2,100.2,0,84.1,0,64.1v-7.3c0-0.3,0.2-0.5,0.5-0.5H42c0.3,0,0.5,0.2,0.5,0.5v42.4
	C42.5,99.8,42,100.2,41.4,100.2z"/>
<path class="st0" d="M104.8,100.2h-5.6c-0.4,0-0.7-0.3-0.7-0.7V0.7c0-0.4,0.3-0.7,0.7-0.7h41c0.4,0,0.7,0.3,0.7,0.7V64
	C141,84.1,124.8,100.2,104.8,100.2z"/>
<path class="st0" d="M154.1,100.2h-5.6c-0.4,0-0.7-0.3-0.7-0.7V0.7c0-0.4,0.3-0.7,0.7-0.7h41c0.4,0,0.7,0.3,0.7,0.7V64
	C190.2,84.1,174.1,100.2,154.1,100.2z"/>
<g>
	<path class="st1" d="M333.1,23.6c0.8-4.8,1.7-9.6,2.5-14.4c0-0.2,0-0.3,0.1-0.5c0.8-5.2,1.2-5.5,6.8-4.3c-0.8,3.6-1.5,7.3-2.3,10.9
		c-1.2,5.5-2.5,11-3.6,16.5c-0.4,2-1.1,3.1-3.3,2.8c-0.7-0.1-1.5-0.1-2.2,0c-1.6,0.2-2.3-0.6-2.6-2.1c-1.1-5.6-2.3-11.2-3.5-16.7
		c-0.1-0.7-0.3-1.3-1.1-2c-0.8,3.3-1.6,6.6-2.4,9.9c-0.7,3-1.5,5.9-2,8.9c-0.3,1.5-0.9,2-2.4,2c-5.7-0.2-4.6,0.8-5.8-4.6
		c-1.7-7.4-3.2-14.8-4.8-22.1c-0.2-1.1-0.4-2.2-0.7-3.7c2,0,3.7-0.2,5.4,0.1c0.5,0.1,1.2,1.2,1.3,1.9c1,5.1,1.9,10.3,2.8,15.4
		c0.1,0.7,0.4,1.5,1.1,2.2c0.4-1.6,0.7-3.2,1.1-4.8c1-4.4,2-8.8,2.9-13.2c0.3-1.4,0.9-1.8,2.3-1.8c6.6,0.1,5.1-0.9,6.5,5.2
		c1.1,4.8,2.1,9.7,3.1,14.5C332.6,23.7,332.8,23.7,333.1,23.6z"/>
	<path class="st1" d="M437.1,23.2c0-5.4,0-10.9,0-16.3c0-0.9,0.3-2.5,0.6-2.5c1.5-0.3,3.2-0.2,4.7,0c0.2,0,0.5,1.1,0.5,1.7
		c0,8.8,0,17.7,0.1,26.5c0,1.6-0.6,2.1-2.1,2.1c-6.1,0.2-6.1,0.2-8.2-5.6c-1.6-4.4-3.3-8.9-4.9-13.3c-0.2-0.5-0.4-0.9-1.2-1.3
		c0,0.8-0.1,1.6-0.1,2.5c0,5.1-0.1,10.3,0,15.4c0.1,2.3-1.2,2.4-2.9,2.3c-1.6,0-3.2,0.3-3.1-2.3c0.1-8.7,0.1-17.3,0-26
		c0-1.6,0.5-2.2,2.2-2.3c6.1-0.1,6.1-0.2,8.3,5.5c1.8,4.6,3.5,9.2,5.3,13.9C436.6,23.3,436.9,23.2,437.1,23.2z"/>
	<path class="st1" d="M273.9,19.3c0-4.4,0-8.8,0-13.2c0-1.6,0.6-2.1,2.1-2.1c2.9,0.1,5.8,0,8.7,0c4.8,0.1,7.9,2.3,8.4,6.9
		c0.6,5.1,0.8,10.4,0.3,15.5c-0.5,5.4-4,7.9-9.4,8c-2.6,0-5.3-0.1-7.9,0c-1.7,0.1-2.3-0.6-2.2-2.3c0-0.2,0-0.3,0-0.5
		C273.8,27.7,273.8,23.5,273.9,19.3L273.9,19.3z M280.2,19.4c0,2.8,0,5.6,0,8.4c0,1.4,0.5,2,1.9,2c3.3,0.1,4.8-0.8,5.1-4
		c0.3-4.3,0.2-8.6,0.1-12.9c0-0.8-0.4-1.7-0.9-2.4c-1.3-2-3.4-1.8-5.2-1.4c-0.5,0.1-0.9,1.9-1,2.9C280.1,14.4,280.2,16.9,280.2,19.4
		z"/>
	<path class="st1" d="M248.3,19.1c0-4.3,0-8.7,0-13c0-1.5,0.5-2.2,2.1-2.1c3,0.1,5.9-0.1,8.9,0c4.7,0.2,7.7,2.3,8.2,6.9
		c0.6,5.1,0.8,10.4,0.3,15.5c-0.5,5.5-4.1,8-9.6,8.1c-2.6,0-5.1-0.1-7.7,0c-1.7,0.1-2.3-0.5-2.2-2.2c0.1-2.2,0-4.5,0-6.7
		C248.2,23.5,248.2,21.3,248.3,19.1L248.3,19.1z M254.6,19L254.6,19c0,3,0,5.9,0,8.9c0,1.3,0.5,1.8,1.8,1.9c3.5,0.1,5.1-1.1,5.4-5
		c0.2-3.8,0.1-7.5,0-11.3c0-1-0.4-2.1-0.9-3c-1.1-2.1-3.2-1.9-5.1-1.7c-2,0.3-1.1,2-1.2,3.1C254.5,14.3,254.6,16.7,254.6,19z"/>
	<path class="st1" d="M375.3,34.5c-1.7,0-3.3,0.2-4.8-0.1c-0.6-0.1-1.4-1.2-1.5-2c-0.3-2,0-4-0.3-6c-0.2-1.2-0.7-2.7-1.5-3.3
		c-0.9-0.7-2.5-0.7-3.6-0.5c-0.4,0.1-0.7,1.7-0.8,2.7c-0.1,2.3-0.1,4.7,0,7c0.1,1.7-0.5,2.4-2.2,2.2c-0.7-0.1-1.4,0-2.2,0
		c-1.3,0.1-1.9-0.5-1.9-1.8c0-9,0-18,0-27c0-1.4,0.7-1.8,2-1.8c3,0,5.9,0,8.9,0c3.9,0,6.2,1.7,7.1,4.9c1.3,4.3,0.1,8.3-3,10.3
		c-0.3,0.2-0.5,0.3-1.1,0.8c4.3,1.3,4.6,4.5,4.5,7.9C375,30,375.2,32.1,375.3,34.5z M362.7,13.2L362.7,13.2c0,0.6,0,1.3,0,1.9
		c0.1,2.4,0.7,2.9,3.1,2.5c2.3-0.4,3.5-4,2.4-6.9c-0.8-2.1-2.6-2.1-4.2-1.7c-0.6,0.2-1,1.6-1.3,2.5C362.6,12,362.7,12.6,362.7,13.2z
		"/>
	<path class="st1" d="M243.5,16.3c0,3.1,0,6.3,0,9.4c0,3.9-1.5,7.2-5.3,8.6c-4.4,1.7-9.1,1.7-12.5-2c-1.4-1.5-2.3-4.1-2.4-6.3
		c-0.3-6.6-0.1-13.3-0.1-20c0-1.5,0.5-2.3,2.1-2.1c0.6,0.1,1.3,0.1,1.9,0c1.8-0.2,2.4,0.6,2.3,2.4c-0.1,6.2-0.1,12.4,0,18.5
		c0,1,0,1.9,0.3,2.9c0.5,1.8,1.6,2.8,3.7,2.8c2,0,3.1-1.1,3.6-2.9c0.2-0.9,0.2-1.9,0.2-2.9c0-6.1,0.1-12.2,0-18.3
		c-0.3-2.6,1.2-2.4,3-2.4s3.4-0.2,3.2,2.5C243.3,9.8,243.5,13.1,243.5,16.3z"/>
	<path class="st1" d="M379.2,19.1c0-4.3,0.1-8.7,0-13c0-1.5,0.4-2.2,2.1-2.1c4,0.1,8,0.1,12,0c1.9,0,2.2,0.8,2.2,2.5
		c0,1.8-0.5,2.5-2.3,2.4c-1.9-0.1-3.9,0-5.8,0c-1.3,0-1.8,0.5-1.9,1.8c-0.5,5.5-0.5,5.5,4.9,5.5c0.6,0,1.1,0.1,1.7,0
		c1.9-0.2,2.7,0.3,2.7,2.5c0,2.1-0.9,2.5-2.6,2.3c-0.5,0-1,0-1.4,0c-1.7,0.2-4.6,0.1-4.8,0.7c-0.6,2.2-0.4,4.7-0.3,7.1
		c0,0.4,1.2,0.9,1.9,0.9c2.2,0.1,4.3,0.1,6.5,0c1.8,0,1.9,1,1.8,2.4c0,1.3,0.1,2.5-1.8,2.4c-4.4,0-8.8,0-13.2,0
		c-1.5,0-1.7-0.8-1.7-2c0-2.2,0-4.5-0.1-6.7C379.2,23.6,379.2,21.4,379.2,19.1L379.2,19.1z"/>
	<path class="st1" d="M448,19.9c0.3-3.6,0.3-6.4,0.8-9.1c1.1-6.7,9.8-10,15.3-5.9c2.4,1.8,3,4.5,3,7.3c0,0.5-0.9,1.1-1.5,1.4
		c-0.6,0.2-1.4,0-2.1,0.1c-1.7,0.2-2.5-0.5-2.6-2.3c-0.1-1.5-0.2-3.2-2.3-3.3c-2.1-0.1-3.3,1.2-3.4,3c-0.2,5.5-0.2,11,0,16.6
		c0.1,1.8,1.3,3.1,3.4,3s2.4-1.6,2.7-3.1c0.6-2.9,2.5-4,5.3-3c0.4,0.2,0.9,0.9,0.9,1.4c0.3,4.9-2.3,8.4-6.9,9.3
		c-5.5,1-10.2-1.2-11.4-5.9C448.4,26,448.3,22.6,448,19.9z"/>
	<path class="st1" d="M218,17c0,3.4,0,6.7,0,10.1c-0.1,4.5-1.7,6.9-6,7.7c-2.6,0.5-5.6,0.1-8.2-0.6c-2.7-0.7-4.6-6.2-3.5-8.9
		c0.2-0.4,0.8-0.7,1.3-0.8c0.9-0.1,1.8,0,2.6-0.1c1.7-0.2,2.6,0.4,2.4,2.3c-0.1,0.5,0,1,0.1,1.4c0.3,1.5,1.2,2.8,2.7,2.3
		c0.9-0.3,2-1.6,2.1-2.6c0.3-2.4,0.1-4.8,0.1-7.2c0-4.8,0.1-9.6,0-14.4c0-1.6,0.5-2.4,2.2-2.3c0.5,0,1,0.1,1.4,0
		c2.1-0.3,2.9,0.5,2.8,2.7C217.9,10.1,218,13.6,218,17L218,17z"/>
	<path class="st1" d="M415.6,19.2c0,4.4,0,8.8,0,13.2c0,1.6-0.5,2.2-2.1,2.1c-0.8-0.1-1.6,0-2.4,0c-1.4,0.1-1.8-0.6-1.8-1.9
		c0-8.9,0-17.8,0-26.7c0-1.4,0.5-2.1,2-2c0.7,0.1,1.4,0.1,2.2,0c1.7-0.2,2.2,0.6,2.2,2.3C415.6,10.6,415.6,14.9,415.6,19.2
		L415.6,19.2z"/>
	<path class="st1" d="M351.6,19.5c0,4.2-0.1,8.5,0,12.7c0,1.8-0.6,2.3-2.4,2.3c-3.9,0-4,0.1-4-3.8c0-8,0.1-16-0.1-24
		c-0.1-2.9,1.6-2.6,3.5-2.7c2.1-0.1,3,0.4,2.9,2.8C351.5,11,351.6,15.3,351.6,19.5z"/>
	<path class="st1" d="M471.4,31.7c-0.4-2.1,0.3-2.8,2.4-2.8c2.2,0,2.7,0.8,2.7,2.9c0,1.9-0.2,2.9-2.6,2.9
		C471.4,34.7,471,33.6,471.4,31.7z"/>
</g>
</svg>
