<?xml version="1.0" encoding="utf-8"?>
<!-- Generator: Adobe Illustrator 21.0.0, SVG Export Plug-In . SVG Version: 6.00 Build 0)  -->
<!DOCTYPE svg PUBLIC "-//W3C//DTD SVG 1.1//EN" "http://www.w3.org/Graphics/SVG/1.1/DTD/svg11.dtd">
<svg version="1.1" xmlns="http://www.w3.org/2000/svg" xmlns:xlink="http://www.w3.org/1999/xlink" x="0px" y="0px"
	 viewBox="0 0 537.7 318.5" style="enable-background:new 0 0 537.7 318.5;" xml:space="preserve">
<style type="text/css">
	.st0{display:none;}
	.st1{fill:#FFFFFF;}
</style>
<g id="Layer_1">
</g>
<g id="Layer_4">
</g>
<g id="Layer_2" class="st0">
</g>
<g id="Layer_3">
	<g>
		<g>
			<path class="st1" d="M0.7,270.4c3,0,6,0.2,9,0c2.2-0.1,3.3,0.7,4.2,2.6c4.4,8.8,8.9,17.5,13.7,27.1c0-10.3,0-19.8,0-29.5
				c2.5,0,4.7,0,7,0c0,12.2,0,24.3,0,36.8c-3.6,0-7,0.2-10.5-0.1c-1-0.1-2.2-1.4-2.8-2.5c-4.5-8.6-8.9-17.3-13.6-26.5
				c0,9.9,0,19.3,0,28.9c-2.6,0-4.9,0-7.2,0C0.7,295.1,0.7,282.7,0.7,270.4z"/>
			<path class="st1" d="M209.6,318.5c0.1-10.7,0.2-21.3,0.2-32c0-1.5,0-3,0-4.9c2.6,0.6,5.6-1.9,6.9,1.9c1.7-0.7,3.4-1.7,5.3-2
				c8.3-1.3,11.7,1.5,12.3,9.8c0.2,2.6,0.1,5.3-0.2,8c-0.9,7.7-8.4,11.3-15.2,7.3c-0.7-0.4-1.3-0.9-2.4-1.7c0,4.8,0,9.2,0,13.5
				C214.3,318.5,212,318.5,209.6,318.5z M228,294.6c0-0.5-0.1-1.2-0.1-1.9c-0.3-5.1-1.4-6.3-5.7-6.3c-4,0-5.2,1.5-5.4,6.3
				c-0.1,1.8,0,3.7,0.2,5.5c0.6,3.6,2.1,4.5,6.1,4.4c3.2-0.1,4.6-1.8,4.7-4.8C227.8,296.9,227.9,295.8,228,294.6z"/>
			<path class="st1" d="M502.1,318.5c0-11.8,0-23.6,0-35.4c0-0.3,0.1-0.7,0.2-1.4c2.2,0.5,5.2-1.9,6.4,1.3c3.6-0.5,7.2-1.3,10.9-1.3
				c3.3-0.1,5.9,2,6.3,5.3c0.5,4.6,0.9,9.3,0.4,13.8c-0.8,6.4-8.2,9.4-14.6,6.2c-0.8-0.4-1.5-0.9-2.5-1.4c0,4.5,0,8.8,0,13
				C506.8,318.5,504.5,318.5,502.1,318.5z M509.1,294.4C509.1,294.4,509.1,294.4,509.1,294.4c-0.1,0.6-0.1,1.2-0.1,1.7
				c0.1,5.1,1.3,6.6,5.4,6.6c4.4,0.1,5.6-1.3,5.7-6.7c0-1.7,0.1-3.5-0.2-5.2c-0.5-3.4-2-4.4-5.8-4.4c-3.3,0-5,1.5-5.1,4.8
				C509.1,292.3,509.1,293.3,509.1,294.4z"/>
			<path class="st1" d="M537.7,307.4c-1.9,0-3.9,0-6.1,0c0-2.1,0-4.2,0-6.5c2-0.2,4-0.3,6.1-0.5C537.7,302.7,537.7,305,537.7,307.4z
				"/>
			<path class="st1" d="M439.6,294.3c2.3,0,4.3,0,6.3,0c1.9,8.2-0.9,12.6-8.9,13.3c-5,0.4-10.1-0.2-15.1-0.8
				c-3.1-0.3-5.2-2.5-5.4-5.6c-0.4-7.5-0.8-15-0.7-22.4c0.1-3.9,2.6-7,6.6-7.4c5.4-0.6,10.9-1.1,16.2-0.6c5.9,0.5,8.2,4.8,7.2,12.1
				c-2.2,0-4.4,0-6.7,0c-1-5.9-1.3-6.1-7.5-6.1c-8.3,0-8.6,0.2-9,8.5c-0.2,3.8,0.1,7.6,0.2,11.5c0.1,2.8,1.4,4.6,4.4,4.8
				c1.3,0.1,2.5,0.3,3.8,0.3C437.9,301.8,438.6,301.2,439.6,294.3z"/>
			<path class="st1" d="M125,282.9c-0.8-5.8-1.2-6.1-6.8-6.2c-9.1-0.1-9.6,0.4-9.6,9.6c0,3.5,0.1,6.9,0.2,10.4
				c0.1,2.8,1.5,4.5,4.5,4.7c1,0.1,2.1,0.3,3.1,0.3c7.1,0.3,8-0.5,9.1-7.4c2.1,0,4.3,0,6.4,0c1.6,8.6-1,12.7-9.4,13.3
				c-5,0.4-10.1-0.3-15.1-0.9c-2.8-0.3-4.7-2.4-4.9-5.2c-0.5-7.5-1-15-0.7-22.4c0.2-5,2.7-7.3,7.7-7.9c4.7-0.6,9.5-0.9,14.2-0.6
				c6.6,0.4,9.3,4.9,8,12.3C129.5,282.9,127.4,282.9,125,282.9z"/>
			<path class="st1" d="M84,282.8c-2.4,0-4.6,0-5.7,0c-1.6-2.4-2.6-5.5-4-5.6c-3.9-0.5-7.9,0.2-11.9,0.7c-0.6,0.1-1.4,2.2-1.4,3.3
				c-0.1,5.4-0.1,10.9,0.4,16.3c0.1,1.3,2,2.8,3.4,3.6c1.3,0.7,3.2,0.6,4.8,0.6c6.6,0,7.4-0.7,8-7.3c2.1,0,4.3,0,6.4,0
				c2.1,7.8-0.7,12.4-8.5,13.1c-4.6,0.4-9.3,0.2-13.8-0.2c-4.8-0.5-6.9-2.5-7.3-7.4c-0.6-6.5-0.9-13.2-0.6-19.7
				c0.2-5.7,2.7-8.3,8.2-9.1c4.7-0.7,9.5-0.9,14.2-0.5C82.5,271.1,84.8,275,84,282.8z"/>
			<path class="st1" d="M187.5,307.4c-2.3,0-4.2,0-6.4,0c0-5.1,0-10.1,0-15c0-4.9-0.8-5.9-4.3-5.8c-3.7,0.1-5.4,1.9-5.4,6.1
				c0,4.8,0,9.7,0,14.7c-2.3,0-4.2,0-6.3,0c0-8.5,0-16.9,0-25.7c2.3,0.6,5.4-2.2,6.6,2.1c6-3.7,11.4-3.3,14.7,0.6
				c2.7-1,5.1-2.6,7.6-2.8c6.8-0.6,9.9,2.5,10,9.3c0.1,5.4,0,10.8,0,16.5c-2.3,0-4.2,0-6.7,0c0-5.4,0.2-10.8-0.1-16.2
				c-0.1-1.5-1.4-3.8-2.7-4.2c-1.5-0.5-4.1,0.1-5.3,1.2c-1.1,1-1.5,3.3-1.6,5.1C187.4,297.8,187.5,302.4,187.5,307.4z"/>
			<path class="st1" d="M319.9,298.6c0.1,5.5-1.4,8.1-5.7,8.7c-3.9,0.5-8.1,0.3-12,0c-3.1-0.3-5.1-2.6-5.3-5.6
				c-0.3-4.6-0.4-9.2,0-13.8c0.2-3.1,2.4-5.5,5.6-5.8c3.8-0.4,7.6-0.5,11.4-0.1c3.2,0.3,5.2,2.6,5.7,5.7c0.4,2.6,0.5,5.2,0.8,8.4
				c-6,0-11.7,0-17.4,0c-0.1,3-0.5,5.7,2.8,6.7c3.5,1.1,5.8-0.1,8-2.4C315,299,317.6,299.2,319.9,298.6z M313.3,291.7
				c0.3-4.6-0.6-5.5-5.1-5.4c-4.4,0-5.4,1.1-5,5.4C306.5,291.7,309.8,291.7,313.3,291.7z"/>
			<path class="st1" d="M462.1,281.5c9.7-0.1,11.7,1.9,12,11.7c0,0.7,0.1,1.4,0,2.1c-0.5,4,0.5,9-4,11.2c-5.4,2.6-11.4,2.4-16.8-0.2
				c-1.6-0.7-2.9-3.4-3.2-5.3c-0.6-3.6-0.6-7.4-0.3-11.1c0.5-6.3,2.5-8,8.8-8.4C459.7,281.4,460.9,281.5,462.1,281.5z M467.5,294
				c-0.1-0.9,0.1-2.6-0.4-4.1c-0.4-1.2-1.5-2.6-2.7-3.1c-3.1-1.3-6.7-0.2-7.7,1.9c-1.4,2.8-0.6,12.1,1.1,13.3
				c0.2,0.1,0.4,0.2,0.6,0.3c4.8,2.1,8.7-0.3,9-5.5C467.4,296.1,467.4,295.4,467.5,294z"/>
			<path class="st1" d="M238.4,294.6c0-11.4,2-13.3,13.4-13.2c8.6,0.1,11,2.3,11.2,10.9c0.1,2.2,0,4.4-0.3,6.6
				c-0.7,6.6-2.6,8.4-9.1,9.1c-0.5,0-0.9,0-1.4,0.1C241,308.3,238.4,305.9,238.4,294.6z M245.1,294.7c0,0.7,0,1.4,0,2.1
				c0.2,5.3,4.3,8,9,5.4c3.6-2,2-5.8,2.2-8.9c0.1-2.3,0.6-5-2.3-6.4c-4.8-2.2-8.7,0.2-8.9,5.3C245.1,293.1,245.1,293.9,245.1,294.7z
				"/>
			<path class="st1" d="M135.2,294.5c0.1-11.2,2.2-13.2,13.3-13.1c1.8,0,3.7,0.2,5.5,0.5c3.1,0.5,5.2,2.5,5.3,5.6
				c0.3,4.6,0.3,9.2-0.1,13.8c-0.3,3.5-2.5,5.8-6.1,6.1c-3.3,0.3-6.7,0.5-10,0.1c-5.4-0.6-6.8-2.4-7.5-7.8
				C135.5,298,135.4,296.3,135.2,294.5z M142,294.4C142,294.4,142,294.4,142,294.4c0,1.6,0,3.2,0.2,4.8c0.3,3.1,2.6,3.4,5.1,3.4
				c2.4,0,5.3,0.2,5.7-3.1c0.4-3.3,0.3-6.7,0-10c-0.1-0.9-1.1-2.1-2-2.5c-4.8-2.4-8.9,0-9,5.3C142,293.1,142,293.8,142,294.4z"/>
			<path class="st1" d="M396.7,288.8c-2.5,0-4.9,1.2-7.2-2c-0.8-1.2-5.2-0.1-7.9,0.3c-0.3,0-0.8,2-0.5,2.8c0.2,0.7,1.4,1.4,2.3,1.5
				c2.9,0.4,5.8,0.4,8.6,0.9c4.4,0.6,5.7,2.2,6,6.7c0.3,4.5-1.4,7.8-5.2,8.3c-4.6,0.6-9.4,0.5-14.1,0.1c-3.5-0.4-4.7-3.1-4.4-7.8
				c2.4,0.6,5.5-2,6.9,2.6c0.8,2.4,8.3,2,9.7-0.2c1.2-1.9,0-4.2-2.6-4.5c-2.3-0.3-4.6-0.1-6.9-0.4c-6.4-0.7-9.5-6.7-6.2-12.2
				c0.8-1.4,2.8-2.7,4.4-2.8c4-0.4,8.1-0.5,12.1-0.1C395.7,282.1,397,284.4,396.7,288.8z"/>
			<path class="st1" d="M331.5,307.4c-2.3,0-4.2,0-6.2,0c0-8.5,0-17,0-25.7c2.3,0.5,5.4-2.1,6.5,2c1.7-0.7,3.3-1.8,5-2.1
				c6.4-0.8,12.2,0.4,11.7,9.8c-0.3,5.2,0,10.4,0,15.9c-2.1,0-4,0-6.4,0c0-5.1,0-10.2,0-15.2c0-4.4-0.9-5.5-4.4-5.5
				c-3.9-0.1-6,1.7-6.1,5.5C331.4,297,331.5,302,331.5,307.4z"/>
			<path class="st1" d="M274.4,307.3c-2.2,0-4,0-6.1,0c0-8.4,0-16.9,0-25.7c2.2,0.5,5.2-1.9,6.2,1.2c3.5-0.4,7-1.3,10.5-1.2
				c3.8,0.1,6,2.8,6.3,6.6c0.1,1.4,0.1,2.8,0.1,4.2c0,4.8,0,9.7,0,14.8c-2.1,0-4,0-6.4,0c0-4.9,0-9.9,0-14.8c0-4.9-0.9-6-4.7-5.9
				c-3.9,0-5.8,1.9-5.8,6.1C274.3,297.4,274.4,302.3,274.4,307.3z"/>
			<path class="st1" d="M361,276c0.1,1.8,0.3,3.4,0.4,5.4c3.1,0,6.2,0,9.5,0c0,1.8,0,3.2,0,5.1c-3.1,0-6.2,0-9.6,0
				c0,4.5-0.2,8.7,0.1,12.8c0.1,1.2,1.4,2.2,2.2,3.3c1-1,2-2,2.9-3.1c0.3-0.4,0.2-1.1,0.4-1.8c1.7,0,3.2,0,5,0
				c0.4,3.4,0.9,6.8-2.6,9c-3.3,2.1-9.9,2-12.1-0.6c-1.4-1.6-2.1-4.1-2.3-6.3c-0.3-4.1-0.1-8.3-0.1-12.7c-1-0.3-2-0.6-3-0.9
				c0-1.3,0-2.7,0-4.2c0.9-0.2,1.9-0.5,2.9-0.7c0.1-1.7,0.3-3.3,0.4-5.1C357,276,358.9,276,361,276z"/>
			<path class="st1" d="M48.2,307.4c-2.3,0-4.5,0-6.9,0c0-12.2,0-24.3,0-36.7c2.2,0,4.4,0,6.9,0C48.2,282.8,48.2,294.9,48.2,307.4z"
				/>
			<path class="st1" d="M499.1,291.8c-2.2,0-3.9,0-5.5,0c-0.2-0.3-0.4-0.5-0.4-0.7c-0.3-2.1-0.1-4.7-3.3-4.7c-3.2,0-4.1,2.3-4.2,4.9
				c-0.2,5.2,0,10.4,0,15.9c-2.2,0-4.1,0-6.3,0c0-8.4,0-16.9,0-25.7c2.3,0.5,5.2-1.7,6.6,2.1c3-2.6,6.4-3.5,9.9-1.5
				C499.4,284.2,499,287.9,499.1,291.8z"/>
		</g>
		<g>
			<path class="st1" d="M186.8,0v23.9C164.2,8.8,137.1,0,108,0H0v254.4h66.2V66.2h34.2c47.7,0,86.4,38.7,86.4,86.4v101.8H250V142V0
				H186.8z"/>
			<path class="st1" d="M335.5,200.5c-15.9,0-28.8-12.9-28.8-28.8s12.9-28.8,28.8-28.8h84.7c-12.3-34.6-45.4-59.4-84.2-59.4
				c-49.3,0-89.4,40-89.4,89.4c0,49.3,40,89.4,89.4,89.4c39.7,0,73.3-25.9,85-61.7H335.5z"/>
		</g>
	</g>
</g>
</svg>
