<?xml version="1.0" encoding="utf-8"?>
<!-- Generator: Adobe Illustrator 21.0.0, SVG Export Plug-In . SVG Version: 6.00 Build 0)  -->
<!DOCTYPE svg PUBLIC "-//W3C//DTD SVG 1.1//EN" "http://www.w3.org/Graphics/SVG/1.1/DTD/svg11.dtd">
<svg version="1.1" id="Layer_2" xmlns="http://www.w3.org/2000/svg" xmlns:xlink="http://www.w3.org/1999/xlink" x="0px" y="0px"
	 viewBox="0 0 286.7 75.9" style="enable-background:new 0 0 286.7 75.9;" xml:space="preserve">
<style type="text/css">
	.st0{fill:#A7DDE8;}
	.st1{fill:url(#SVGID_1_);}
	.st2{fill:#434345;}
	.st3{fill:#454547;}
</style>
<g>
	<g>
		<g>
			<path class="st0" d="M260.1,66c-10.7-1.3-15.7-6.2-15.7-6.2s-10.3-8.2-7.5-19.1c1.5-5.6,7.1-10,12.1-12.8
				c-8.1,4.3-13.5,10.9-13.5,19.5c0,8.9,5.6,18.1,14,24.8C253,71.6,260.5,66.3,260.1,66z"/>
			<g>
				<path class="st0" d="M211.4,12.5c3.7,2.1,5.1,5,5.1,5s5.2,5.3,3.3,12.6c-1,4-4.8,7-8,8.9c5.1-1.7,9.2-7.3,9.2-15
					c0-5.9-2.5-11.6-6-15C213.6,9.6,211.1,12.4,211.4,12.5z"/>
			</g>
		</g>
		<radialGradient id="SVGID_1_" cx="236.9281" cy="37.9393" r="37.9393" gradientUnits="userSpaceOnUse">
			<stop  offset="0" style="stop-color:#9FCEE3"/>
			<stop  offset="0.4994" style="stop-color:#008EBD"/>
			<stop  offset="1" style="stop-color:#006186"/>
		</radialGradient>
		<path class="st1" d="M270.8,20.8c-14.1,0.6-31.3,9.7-33.9,19.9c-2.8,10.9,7.5,19.1,7.5,19.1s5,4.9,15.7,6.2c0.5,0.3-9.7,7.5-12,6
			c-9.1-7-18.4-20.2-18.4-38c0-11.6,7.2-24.8,16.7-32.8c-3-0.8-6.2-1.2-9.5-1.2C216,0,199,17,199,37.9c0,1.9,0.1,3.8,0.4,5.6
			c9.4-2.2,18.7-5.9,20.4-12.4c1.9-7.3-2.5-13.1-2.5-13.1s-2.2-3.4-5.9-5.5c-0.3-0.2,3.4-4.1,4.2-3.4c6.1,6.9,10.8,11.9,10.8,26.5
			c0,9.5-9.7,22.3-18.4,26.9c7,8.2,17.3,13.4,28.9,13.4c21,0,37.9-17,37.9-37.9C274.9,31.8,273.4,25.9,270.8,20.8z"/>
		<g>
			<path class="st2" d="M109.9,37.2c0,8,0,16,0,24c0,1-0.3,1.1-1.2,1.1c-2.5-0.3-4.9-0.7-6.6-2.8c-0.4-0.5-0.6,0-0.8,0.2
				c-6.8,3.8-13.5,3.6-19.9-0.7c-5.9-4-8.8-11.6-7.3-18.6c1.5-7,7.3-12.6,14.4-14c2.6-0.5,5.3-0.3,7.9-0.3c1.5,0,3.1,0,4.6,0
				c0.7,0,0.9-0.2,0.9-0.8c0-3.1,0-6.1,0-9.2c0-0.8,0.2-1.4,0.8-1.9c2-1.6,4.3-2,6.7-2.1c0.7,0,0.5,0.5,0.5,0.8c0,3.1,0,6.3,0,9.4
				C109.9,27.2,109.9,32.2,109.9,37.2z M101.9,40.3c0-2.1,0-3.9,0-5.6c0-0.4,0-0.7-0.6-0.7c-3.4,0-6.8-0.1-10.2,0.1
				c-5.9,0.3-10.1,5.6-9.3,11.4c0.6,4.8,4.7,8.6,9.5,8.7c5.1,0.2,9.4-3.1,10.4-8C102.1,44.1,101.8,42,101.9,40.3z"/>
			<path class="st2" d="M13.6,41.1c1-0.1,2,0,3-0.2c4.6-0.6,7.8-4.4,7.7-9.2c-0.1-4.4-3.7-8.2-8.2-8.4c-2.4-0.1-4.9,0-7.3-0.1
				c-0.8,0-0.7,0.4-0.7,0.9c0,4.3,0,8.5,0,12.8c0,8,0,16.1,0,24.1c0,0.8-0.2,1.1-1.1,1.1c-2.1-0.1-4.3,0-6.4,0
				c-0.6,0-0.7-0.2-0.7-0.7C0,46.2,0,31,0,15.9c0-0.6,0.1-0.8,0.8-0.8c5.2,0,10.4-0.1,15.7,0c7.4,0.1,14.4,6.3,15.7,13.7
				c1.2,6.8-0.9,12.4-6.3,16.7c-0.6,0.5-0.6,0.8-0.3,1.4c2.6,4.9,5.1,9.8,7.7,14.6c0.4,0.8,0.2,0.9-0.6,0.9
				c-1.8-0.1-3.6,0.1-5.5-0.1c-1.9-0.2-3.4-1.1-4.3-2.9c-3.1-6-6.2-11.9-9.3-17.9C13.7,41.4,13.7,41.2,13.6,41.1z"/>
			<path class="st2" d="M161.6,44.3c0,5.6,0,11.3,0,16.9c0,1-0.3,1.1-1.2,1.1c-2.5-0.3-4.8-0.7-6.6-2.7c-0.4-0.5-0.7,0-0.9,0.1
				c-3,1.8-6.2,2.6-9.7,2.6c-9.1-0.1-17.1-7.6-17.7-16.6c-0.6-10.5,6.6-18.8,17.1-19.6c3.7-0.3,7.2,0.6,10.4,2.6
				c0.5,0.3,0.8,0.4,1.4-0.1c1.9-1.8,4.3-2.2,6.8-2.2c0.7,0,0.5,0.5,0.5,0.9c0,4.6,0,9.1,0,13.7C161.6,42.1,161.6,43.2,161.6,44.3z
				 M153.7,44.2c0-5.5-4.5-10.1-9.9-10.1c-5.7,0-10.2,4.5-10.3,10c0,5.5,4.5,10.1,10,10.2C149.2,54.3,153.6,49.9,153.7,44.2z"/>
			<path class="st2" d="M70.3,44.4c0,5.6,0,11.3,0,16.9c0,0.9-0.3,1.1-1.1,1c-2.5-0.3-4.9-0.7-6.7-2.7c-0.4-0.4-0.6,0-0.9,0.1
				c-4.9,2.9-10.1,3.4-15.4,1.6c-7.8-2.6-12.7-10.4-12-18.9c0.6-7.7,7-14.5,14.7-15.9c4.6-0.8,8.9-0.1,12.9,2.4c0.4,0.2,0.6,0.4,1,0
				c1.9-1.9,4.3-2.2,6.8-2.3c0.8,0,0.5,0.5,0.5,0.9C70.3,33,70.3,38.7,70.3,44.4z M62.4,44.1c0-5.5-4.6-10.1-10-10.1
				c-5.7,0-10.2,4.6-10.2,10.1c0,5.7,4.5,10.1,10.2,10.1C57.9,54.2,62.4,49.7,62.4,44.1z"/>
			<path class="st3" d="M174.6,37.2c0,8,0,16,0,24c0,0.8-0.2,1.1-1,1c-2.1-0.1-4.1,0-6.2,0c-0.6,0-0.8-0.2-0.8-0.8
				c0-15.3,0-30.6,0-45.9c0-0.3,0-0.7,0.3-0.9c2-2.1,4.5-2.6,7.2-2.6c0.6,0,0.4,0.5,0.4,0.8c0,3.6,0,7.3,0,10.9
				C174.6,28.3,174.6,32.8,174.6,37.2z"/>
			<path class="st3" d="M187.3,37.4c0,7.9,0,15.9,0,23.8c0,0.9-0.3,1.1-1.1,1.1c-2-0.1-4.1,0-6.1,0c-0.6,0-0.8-0.2-0.8-0.8
				c0-15.1,0-30.3,0-45.4c0-0.5,0.1-0.9,0.4-1.2c2-1.9,4.5-2.4,7.1-2.5c0.7,0,0.4,0.5,0.4,0.8c0,3.9,0,7.8,0,11.6
				C187.3,29.1,187.3,33.3,187.3,37.4z"/>
			<path class="st3" d="M121.8,28.9c0.2,0.4,0.1,0.8,0.1,1.1c0,10.4,0,20.8,0,31.1c0,1-0.3,1.2-1.2,1.2c-2-0.1-4,0-6,0
				c-0.6,0-0.8-0.1-0.8-0.8c0-10.2,0-20.5,0-30.7c0-0.7,0.2-0.9,0.9-0.8c0.8,0.1,1.6,0,2.5,0C118.9,30,120.5,30,121.8,28.9z"/>
			<path class="st2" d="M116.7,28.9c-0.9,0-2,0.3-2.5-0.1c-0.6-0.5-0.1-1.7-0.2-2.6c0-0.6,0-1.2,0-1.9c0.1-2.4,2.1-4.2,4.5-4.1
				c2.3,0,4.2,1.9,4.2,4.2c0,2.5-1.7,4.4-4.2,4.5C118,28.9,117.3,28.9,116.7,28.9C116.7,28.9,116.7,28.9,116.7,28.9z"/>
		</g>
	</g>
	<g>
		<path class="st2" d="M276.7,16h-1.9v-0.8h4.8V16h-1.9v4.2h-1.1V16z"/>
		<path class="st2" d="M280.2,15.2h1.5l1.8,3.9l1.7-3.9h1.5v5h-1l0-4.1h0l-1.8,4.1H283l-1.8-4.1h0l0,4.1h-1V15.2z"/>
	</g>
</g>
</svg>
