<?xml version="1.0" encoding="utf-8"?>
<!-- Generator: Adobe Illustrator 21.0.0, SVG Export Plug-In . SVG Version: 6.00 Build 0)  -->
<!DOCTYPE svg PUBLIC "-//W3C//DTD SVG 1.1//EN" "http://www.w3.org/Graphics/SVG/1.1/DTD/svg11.dtd">
<svg version="1.1" xmlns="http://www.w3.org/2000/svg" xmlns:xlink="http://www.w3.org/1999/xlink" x="0px" y="0px"
	 viewBox="0 0 543.8 126.5" style="enable-background:new 0 0 543.8 126.5;" xml:space="preserve">
<style type="text/css">
	.st0{fill:#FFFFFF;}
	.st1{fill:url(#SVGID_1_);}
	.st2{fill:url(#SVGID_2_);}
	.st3{fill:url(#SVGID_3_);}
</style>
<g id="Layer_1">
	<path class="st0" d="M403,62.2c-0.6,0.5-0.7,1.2-1,1.8c-4.4,9.2-8.9,18.5-13.3,27.7c-0.2,0.5-0.3,1.4-1,1.4c-0.7,0-0.8-0.9-1-1.4
		c-8.5-18.4-17-36.8-25.5-55.2c-0.2-0.5-0.6-0.9-0.5-1.5c0.7-0.3,1.3-0.1,2-0.1c3.2,0,6.3,0,9.5,0c1.1,0,1.6,0.4,2,1.4
		c2.9,7.1,5.9,14.1,8.9,21.1c1.3,3.2,2.7,6.4,4,9.6c0.2,0.6,0.4,1.2,0.9,1.7c0.5-1.2,1-2.3,1.5-3.5c4.1-9.6,8.2-19.2,12.4-28.7
		c0.3-0.6,0.3-1.7,1.1-1.7c0.9,0,0.9,1.1,1.2,1.8c4.4,10.1,8.8,20.3,13.2,30.4c0.2,0.6,0.5,1.1,0.8,1.7c0.6-0.5,0.7-1.2,0.9-1.7
		c4.2-10,8.5-20,12.7-30c1-2.4,0.5-1.9,3-1.9c3.5,0,7,0,10.5,0c0.3,0.6-0.1,1-0.3,1.4c-8.6,18.5-17.2,37.1-25.8,55.6
		c-0.2,0.5-0.3,1.2-0.9,1.2c-0.6-0.1-0.7-0.8-0.9-1.3c-4.5-9.2-8.9-18.5-13.4-27.7C403.8,63.4,403.6,62.7,403,62.2z"/>
	<path class="st0" d="M197.5,59.9c-0.3,0.8-0.2,1.4-0.2,2c0,9.5,0,19.1,0,28.6c0,0.4,0,0.9,0,1.3c0.1,0.7-0.3,1-0.9,1
		c-3.3,0-6.7,0-10,0c-0.6,0-0.9-0.3-0.9-0.9c0-0.4,0-0.9,0-1.3c0-18,0-36,0-54c0-0.7-0.5-1.8,0.5-2.1c0.8-0.3,1.2,0.7,1.7,1.2
		c10.7,10.1,21.4,20.3,32.1,30.5c0.4,0.4,0.8,0.7,1.2,1.2c0.5-0.5,0.3-1.1,0.3-1.5c0-9.7,0-19.3,0-29c0-2.1-0.2-2,1.9-2
		c2.9,0,5.7,0,8.6,0c0.9,0,1.4,0.2,1.3,1.2c0,0.4,0,0.7,0,1.1c0,17.9,0,35.9,0,53.8c0,0.4,0,0.7,0,1.1c0,0.4,0.1,0.9-0.5,1.1
		c-0.5,0.2-0.8-0.2-1.1-0.5c-2.9-2.7-5.7-5.5-8.6-8.2c-8.3-7.9-16.5-15.8-24.8-23.7C198.2,60.4,197.9,60.2,197.5,59.9z"/>
	<path class="st0" d="M451.9,63.9c0-8.9,0-17.7,0-26.6c0-0.3,0-0.6,0-0.9c0-1.5,0-1.6,1.6-1.6c9.7,0,19.3,0,29,0c2.5,0,5,0,7.5,0
		c1.3,0,1.3,0,1.3,1.3c0,2.7,0,5.3,0,8c0,1.5,0,1.5-1.5,1.5c-7.8,0-15.6,0-23.3,0c-2.9,0-2.9,0-2.9,2.8c0,3,0,6,0,8.9
		c0,1.5,0.1,1.4,1.4,1.4c6.1,0,12.2,0,18.2,0c0.4,0,0.9,0,1.3,0c0.5,0,0.8,0.2,0.8,0.7c0,3.1,0,6.2,0,9.3c0,0.6-0.4,0.8-0.9,0.8
		c-1,0-2.1,0-3.1,0c-5.4,0-10.8,0-16.2,0c-1.4,0-1.4,0-1.4,1.4c0,3.2,0,6.3,0,9.5c0,1.5,0,1.5,1.6,1.5c5.5,0,10.9,0,16.4,0
		c2.7,0,5.5,0,8.2,0c1.4,0,1.4,0,1.5,1.3c0,2.7,0,5.3,0,8c0,1.3,0,1.3-1.3,1.3c-2.5,0-5,0-7.5,0c-9.5,0-19,0-28.4,0
		c-0.5,0-1,0-1.5,0c-0.5,0-0.8-0.3-0.7-0.8c0-0.4,0-0.9,0-1.3C451.9,81.7,451.9,72.8,451.9,63.9z"/>
	<path class="st0" d="M179.4,53.8c0,5.5,0,10.9,0,16.4c0,4.3-1,8.4-3.1,12.2c-3.1,5.5-7.7,8.9-13.9,10.3c-4.3,1-8.7,1-13-0.2
		c-8.7-2.4-13.5-8.3-15.5-16.9c-0.5-2-0.6-4-0.6-6c0-11,0-22,0-33c0-0.2,0-0.4,0-0.5c0-1.3,0-1.3,1.3-1.3c3.1,0,6.2,0,9.3,0
		c1.2,0,1.3,0,1.3,1.4c0,5.6,0,11.3,0,16.9c0,5.6,0,11.3,0,16.9c0,3.2,1.1,6.1,2.9,8.6c3.8,5.2,12.8,5.4,16.7-0.3
		c1.8-2.6,2.7-5.5,2.7-8.7c0-10.9,0-21.7,0-32.6c0-2.5-0.3-2.3,2.2-2.3c2.7,0,5.5,0,8.2,0c1.5,0,1.5,0,1.5,1.5
		C179.4,42.1,179.4,48,179.4,53.8z"/>
	<path class="st0" d="M239.4,63.7c0-8.8,0-17.6,0-26.4c0-0.3,0-0.6,0-0.9c0-1.5,0-1.5,1.5-1.6c3,0,6,0,8.9,0c1.4,0,1.5,0,1.5,1.5
		c0,10,0,20,0,30.1c0,8,0,15.9,0,23.9c0,0.3,0,0.6,0,0.9c0,1.5,0,1.5-1.5,1.5c-1.8,0-3.6,0-5.5,0c-1.3,0-2.6,0-3.8,0
		c-0.9,0-1.2-0.3-1.1-1.2c0.1-0.6,0-1.2,0-1.8C239.4,81.1,239.4,72.4,239.4,63.7z"/>
	<path class="st0" d="M190,114.8c-1.2-2.5-2.2-4.7-3.4-7c-1.1,2.4-2.2,4.5-3.4,7c-2-4.5-3.9-8.7-5.8-12.9c0.5-0.4,1-0.2,1.4-0.3
		c1.1-0.2,1.6,0.3,2,1.3c0.7,1.9,1.6,3.8,2.4,6c1.4-2.4,2-4.9,3.4-7.5c1.1,2.6,2.1,4.9,3.3,7.6c0.6-1.4,1.1-2.5,1.5-3.6
		c0.2-0.6,0.5-1.1,0.7-1.7c0.9-2.3,0.9-2.3,3.7-2C193.9,106.1,192,110.3,190,114.8z"/>
	<path class="st0" d="M391.5,108.2c0-1.8,0-3.6,0-5.5c0-1,0.5-1.1,1.3-1.1c1.3,0,1.4,0,1.4,1.1c0,1.1,0,2.2,0,3.3c0,0.7,0.3,1,1,0.9
		c1.1,0,2.2-0.1,3.3,0c0.9,0,1-0.4,1-1.1c0-1.1,0-2.2,0-3.3c0-0.9,0.5-0.9,1.2-0.9c0.6,0,1.4-0.2,1.4,0.9c0,3.8,0,7.5,0,11.3
		c0,0.5-0.2,0.7-0.8,0.8c-1.6,0.2-1.8,0-1.8-1.5c0-0.9,0-1.8,0-2.7c0-0.6-0.2-0.9-0.8-0.9c-0.1,0-0.1,0-0.2,0
		c-1.3,0.1-3-0.5-3.9,0.2c-0.9,0.7-0.2,2.4-0.3,3.6c0,0.4,0.2,1.1-0.4,1.2c-0.6,0.1-1.3,0.2-2-0.1c-0.4-0.2-0.2-0.6-0.2-1
		C391.5,111.7,391.5,109.9,391.5,108.2z"/>
	<path class="st0" d="M299.9,110.5c0,0.2,0,0.4,0,0.5c0,2.2-0.5,2.9-2.6,3.5c-3.6,1-7.3-0.4-8.2-4.9c-0.7-3.8,1.2-7.2,4.6-8
		c1.9-0.4,3.8-0.2,5.3,1.1c0.4,0.3,1.2,0.6,0.5,1.4c-0.8,1-1,1.1-1.8,0.7c-0.1-0.1-0.2-0.1-0.3-0.2c-1.3-0.8-2.6-1-4-0.1
		c-1.4,0.9-1.8,2.3-1.8,3.8c0.1,1.6,0.5,3.1,2.3,3.9c1,0.4,1.9,0.3,2.8-0.1c0.7-0.3,0.6-0.8,0.6-1.4c0-0.6-0.6-0.5-1-0.5
		c-0.7-0.1-1.5,0.3-1.5-0.9c0-1.4,0-1.5,1.5-1.5c0.9,0,1.7,0,2.6,0c0.7,0,1.2,0.2,1.1,1C299.8,109.2,299.9,109.9,299.9,110.5z"/>
	<path class="st0" d="M425.1,114.6c-2.4-2.3-4.8-4.7-7.3-7.1c-0.3,1.2-0.1,2.2-0.2,3.2c0,0.8,0,1.6,0,2.4c0,1.7-0.1,1.7-1.7,1.6
		c-0.6,0-0.9-0.2-0.9-0.8c0-4,0-8,0-12.4c2.7,2.6,5,4.9,7.6,7.3c0.3-0.9,0.2-1.7,0.2-2.4c0-1,0-1.9,0-2.9c0-1.6,0.2-1.8,1.7-1.6
		c0.6,0,0.9,0.2,0.9,0.9c0,3.9,0,7.8,0,11.7C425.4,114.3,425.3,114.4,425.1,114.6z"/>
	<path class="st0" d="M516.1,110.5c0,0.2,0,0.4,0,0.5c0,2.2-0.6,3-2.7,3.5c-3.1,0.8-6-0.3-7.3-2.9c-1.5-2.9-0.9-6.9,1.4-8.9
		c2.2-1.8,6-1.8,8.1,0.1c0.4,0.3,0.8,0.7,0.2,1.2c-0.5,0.4-0.7,1.5-1.7,0.8c-0.1-0.1-0.3-0.2-0.5-0.3c-2.9-1.6-5.6-0.1-5.7,3.3
		c0,1,0.1,2.1,0.7,3c0.9,1.4,2.6,1.9,4.1,1.3c0.3-0.1,0.5-0.2,0.7-0.5c0.3-0.8,0-1.4-0.9-1.4c-0.8,0-1.6,0.1-1.5-1.1
		c0.1-1.3,0-1.3,1.3-1.3c1,0,1.9,0,2.9,0c0.6,0,0.9,0.2,0.9,0.8C516.1,109.1,516.1,109.8,516.1,110.5
		C516.1,110.5,516.1,110.5,516.1,110.5z"/>
	<path class="st0" d="M274,108.9c0-2.3,0-4.2,0-6.1c0-1.1,0-1.1,1.3-1.1c1.2,0,1.3,0,1.3,1.1c0,3.9,0,7.7,0,12.1
		c-2.7-2.6-5-4.9-7.4-7.2c-0.6,0.3-0.3,0.9-0.4,1.3c0,1.6,0,3.3,0,4.9c0,1-0.8,0.7-1.3,0.7c-0.5,0-1.3,0.3-1.3-0.8c0-4,0-8,0.3-12.1
		C268.9,104,271.3,106.3,274,108.9z"/>
	<path class="st0" d="M207.8,108.2c0-1.8,0-3.5,0-5.3c0-0.9,0.2-1.3,1.2-1.3c2.1,0.1,4.3,0.1,6.4,0c1,0,1,0.5,1.1,1.2
		c0,0.8-0.2,1.2-1.1,1.2c-1.3-0.1-2.6,0-3.8,0c-0.9,0-1.2,0.3-1.1,1.2c0,0.3,0,0.6,0,0.9c0,0.6,0.2,0.9,0.9,0.8c0.8,0,1.6,0,2.4,0
		c1.5,0,1.5,0.1,1.5,1.3c0,1.2,0,1.2-1.4,1.2c-0.8,0-1.7,0-2.5,0c-0.5,0-0.7,0.2-0.8,0.8c-0.2,1.8,0,1.9,1.8,1.9c1,0,2.1,0,3.1,0
		c1.1,0,1.1,0.1,1.2,1.3c0,0.8-0.2,1.2-1.1,1.2c-2.1-0.1-4.2-0.1-6.4,0c-0.8,0-1.2-0.2-1.2-1.1C207.8,111.7,207.8,110,207.8,108.2z"
		/>
	<path class="st0" d="M347.9,108.2c0-1.8,0-3.6,0-5.5c0-0.8,0.2-1.1,1-1.1c2.2,0,4.4,0.1,6.6,0c1.1,0,1,0.6,1,1.3
		c0,0.7-0.1,1.2-1,1.1c-1.2-0.1-2.4,0-3.6,0c-1.4,0-1.4,0-1.4,1.4c0,0.2,0,0.5,0,0.7c0,0.5,0.2,0.8,0.7,0.7c1,0,2.1,0,3.1,0
		c1,0,0.8,0.7,0.8,1.3c0,0.6,0.2,1.3-0.8,1.3c-1,0-1.9,0-2.9,0c-0.7,0-1,0.2-1,0.9c0,0.2,0,0.5,0,0.7c-0.1,0.8,0.2,1.1,1,1.1
		c1.3-0.1,2.7,0,4,0c1.1,0,0.9,0.7,0.9,1.3c0,0.7,0,1.2-0.9,1.1c-2.2-0.1-4.5,0-6.7,0c-0.7,0-0.9-0.3-0.9-1
		C347.9,111.8,347.9,110,347.9,108.2z"/>
	<path class="st0" d="M379.2,103.9c-0.1,0.1-0.2,0.3-0.3,0.4c-1.1,1.2-1.1,1.2-2.4,0.3c-1.4-0.8-2.8-1-4.1-0.1
		c-1.6,1.1-1.8,2.8-1.5,4.6c0.3,1.6,1.1,2.7,2.7,3.1c1.2,0.3,2.2-0.1,3.1-0.6c1.2-0.6,1.2-0.6,2,0.3c0.2,0.2,0.3,0.4,0.4,0.6
		c-1.6,2.8-6.5,3-8.8,1c-2.8-2.4-2.9-7.7-0.2-10.4C372.3,100.9,377,100.7,379.2,103.9z"/>
	<path class="st0" d="M527.5,101.9c0.6-0.3,1-0.2,1.4-0.3c1-0.2,1.6,0.3,2,1.2c0.6,1.1,1.3,2.2,2,3.4c0.7-1.1,1.2-2,1.7-2.9
		c1.1-2,1.1-2,3.7-1.5c-1.1,1.8-2.1,3.6-3.2,5.3c-0.7,1.1-1,2.1-0.9,3.4c0.1,1,0,2.1,0,3.1c0,0.6-0.1,0.9-0.8,0.9
		c-1.7,0.1-1.9,0.1-1.8-1.7c0.3-2.8-0.4-5.2-2.1-7.5C528.8,104.4,528.2,103.2,527.5,101.9z"/>
	<path class="st0" d="M329.7,109.3c0-1.4,0-2.8,0-4.2c0-0.7-0.2-1.2-1-1.1c-0.4,0-0.7,0-1.1,0c-1.3,0-1.4-0.1-1.3-1.5
		c0-0.6,0.2-0.9,0.8-0.9c2.6,0,5.2,0,7.8,0c1,0,0.8,0.7,0.8,1.3c0,0.6,0,1.1-0.8,1.1c-0.8,0-1.9-0.4-2.4,0.2
		c-0.6,0.7-0.2,1.9-0.2,2.8c0,2.1-0.1,4.3,0,6.4c0,1.1-0.5,1.2-1.3,1.2c-0.8,0-1.4,0-1.3-1.1C329.8,112.1,329.7,110.7,329.7,109.3z"
		/>
	<path class="st0" d="M462.8,108c0-1.7,0-3.4,0-5.1c0-1.3,0-1.3,1.3-1.3c1.2,0,1.2,0,1.3,1.4c0,2.5,0,5.1,0,7.6c0,1.4,0,1.4,1.5,1.5
		c0.7,0,1.5,0,2.2,0c1-0.1,1,0.6,1,1.3c0,0.8-0.1,1.2-1.1,1.2c-1.7-0.1-3.4-0.1-5.1,0c-0.8,0-1.2-0.2-1.2-1.1
		C462.8,111.7,462.8,109.9,462.8,108z"/>
	<path class="st0" d="M250.4,108.2c0-1.8,0-3.6,0-5.5c0-1.2,0.7-1,1.4-1.1c0.7,0,1.3,0,1.3,1c0,3.6,0,7.3,0,10.9c0,1-0.5,1.1-1.2,1
		c-0.7,0-1.5,0.2-1.5-1C250.5,111.8,250.4,110,250.4,108.2z"/>
	<path class="st0" d="M361.1,50.1c-3.4-7.8-9.1-13.1-17.4-15.3c-4.7-1.2-9.5-1.3-14.3-0.5c-8.8,1.4-15.3,5.9-19.3,13.9
		c-4.9,9.8-5,19.9-0.6,29.9c3.2,7.4,8.8,12.2,16.6,14.4c4.4,1.2,9,1.5,13.5,0.9c9.1-1.1,16-5.4,20.3-13.6c2.7-5,3.9-10.4,3.9-13.9
		C363.8,59,363,54.4,361.1,50.1z M348.9,75.2c-3.3,6.1-9.4,8.2-15.9,7.5c-6.3-0.7-10.4-4.2-12.8-10c-1.2-2.9-1.8-5.9-1.8-9.5
		c0.1-3.5,0.9-7.3,3-10.8c2.7-4.7,6.8-7.1,12.2-7.5c2.2-0.2,4.4-0.1,6.5,0.5c3.9,1.1,7,3.4,8.9,7C353,60,353,67.7,348.9,75.2z"/>
	<path class="st0" d="M529.2,70.4c7.4-4,10.9-10.2,10.2-18.5c-0.6-7.3-4.4-12.6-11.3-15.4c-3-1.2-6.2-1.6-9.5-1.6
		c-5.4,0-10.8,0-16.2,0c-1.5,0-2.9,0-4.4,0c-0.9,0-1.2,0.3-1.1,1.2c0,0.4,0,0.7,0,1.1c0,17.9,0,35.7,0,53.6c0,0.4,0,0.7,0,1.1
		c-0.1,0.8,0.3,1,1.1,1c3.2,0,6.3-0.1,9.5,0c1,0,1.1-0.4,1.1-1.2c0-1.6,0-3.3,0-4.9c0-4,0-8,0-12c0-2.2-0.1-1.9,2-1.9
		c1.2,0,2.5,0.1,3.6,0c1.7-0.3,2.4,0.6,3.1,2c2.3,5,4.7,10,7,15c0.5,1,0.7,2.3,1.5,2.9c0.9,0.7,2.2,0.2,3.4,0.2c3,0,6,0,9.3,0
		c-3.5-7.4-6.8-14.5-10.2-21.7C528.5,70.7,528.9,70.5,529.2,70.4z M520.1,61.7c-3.5,0.1-7,0-10.6,0.1c-0.8,0-1.1-0.3-1-1.1
		c0-2.4,0-4.7,0-7.1c0-2.2,0-4.5,0-6.7c0-0.9,0.2-1.3,1.2-1.3c3.5,0.1,6.9,0,10.4,0.1c4.7,0.2,7.7,3.4,7.7,8
		C527.8,58.2,524.6,61.5,520.1,61.7z"/>
	<path class="st0" d="M300.2,52c-0.6-7.4-4.3-12.8-11.3-15.6c-3.1-1.3-6.3-1.6-9.6-1.6c-5.3,0-10.7,0-16,0c-1.6,0-3.2,0-4.7,0
		c-0.7,0-1,0.3-1,1c0,0.4,0,0.9,0,1.3c0,8.9,0,17.7,0,26.6c0,9.2,0,18.3,0,27.5c0,1.7-0.1,1.6,1.6,1.6c2.9,0,5.7,0,8.6,0
		c1.7,0,1.6,0.1,1.6-1.6c0-5.7,0-11.3,0-17c0-1.5,0-1.5,1.5-1.5c3.5,0,6.9,0,10.4,0C290.2,72.6,301.3,64.8,300.2,52z M281,61.7
		c-3.6,0.2-7.2,0-10.7,0.1c-1,0-1.1-0.5-1.1-1.2c0-2.3,0-4.6,0-6.9c0-2.3,0-4.6,0-6.9c0-0.8,0.2-1.2,1.1-1.2
		c3.6,0.1,7.2-0.1,10.7,0.1c4.5,0.2,7.5,3.5,7.4,8C288.5,58.1,285.4,61.5,281,61.7z"/>
	<path class="st0" d="M493.5,107.5c-0.2-3.4-2.3-5.8-5.4-6.1c-3.7-0.3-6.3,1.6-7,5.2c-0.3,1.7-0.1,3.4,0.6,5c0.8,1.6,2,2.6,3.7,3
		c4.5,1.1,8.1-1.7,8-6.5C493.5,107.9,493.5,107.7,493.5,107.5z M490.9,108.8c-0.3,2.2-1.7,3.6-3.6,3.6c-2.1,0-3.6-1.8-3.6-4.2
		c0-2.8,1.8-4.5,4.2-4.2c0.1,0,0.2,0,0.4,0C490,104.4,491.2,106.5,490.9,108.8z"/>
	<path class="st0" d="M446.4,101.8c-4.2-1.4-8.7,0.8-8.5,6.7c0.1,3.1,1.7,5.4,4.3,6.1c4.5,1.3,8.2-1.7,8.2-6.5
		C450.4,105.1,448.9,102.6,446.4,101.8z M444.2,112.4c-2.2,0-3.7-1.7-3.6-4.3c0-2.5,1.4-4.1,3.6-4.1c2.1,0,3.6,1.8,3.6,4.2
		C447.8,110.6,446.3,112.3,444.2,112.4z"/>
	<path class="st0" d="M158.2,101.8c-2.8,1-4.5,4.5-3.7,7.9c0.5,2.4,1.8,4.3,4.3,4.9c4.5,1.2,8-1.7,8-6.5
		C166.9,103,162.9,100.3,158.2,101.8z M163.7,110.4c-0.6,1.3-1.7,2-3.2,2c-1.5,0-2.5-0.7-3.1-2.1c-0.5-1.2-0.6-2.4-0.2-3.7
		c0.5-1.7,1.6-2.6,3.3-2.6c1.7-0.1,2.8,0.7,3.4,2.4c0.2,0.6,0.3,1.2,0.3,1.9C164.3,108.9,164.1,109.6,163.7,110.4z"/>
	<path class="st0" d="M236.7,108.9c1.5-1.1,1.7-2.9,1.1-4.6c-0.6-1.7-1.8-2.5-3.6-2.6c-1.5-0.1-3,0-4.5,0c-0.7,0-1,0.2-1,1
		c0,3.7,0,7.4,0,11.1c0,1.1,0.7,0.9,1.4,0.9c0.7,0,1.3,0.1,1.3-1c-0.1-0.8,0-1.6,0-2.4c0-0.4-0.2-1,0.6-1.1c0.5,0,1.1-0.1,1.4,0.6
		c0.2,0.6,0.6,1.2,0.8,1.8c1,2.2,1,2.2,3.7,1.9c-0.5-1.2-1-2.3-1.5-3.3C235.8,110.3,235.6,109.7,236.7,108.9z M235.4,106.1
		c-0.1,0.8-0.5,1.4-1.3,1.5c-0.7,0.1-1.5,0.1-2.2,0.1c-0.3,0-0.6-0.2-0.6-0.6c0-0.4,0-0.8,0-1.3c0,0,0,0,0,0c0-0.4,0-0.7,0-1.1
		c0-0.3,0.1-0.6,0.5-0.7c0.8,0,1.7-0.2,2.5,0.1C235.1,104.5,235.5,105.2,235.4,106.1z"/>
	<path class="st0" d="M138.5,101.7c-1.4-0.1-2.8,0-4.2,0c-0.8,0-1.1,0.3-1.1,1.1c0,1.8,0,3.6,0,5.5c0,1.8,0,3.6,0,5.5
		c0,1.1,0.6,1,1.3,1c0.6,0,1.4,0.2,1.4-0.9c0-0.9,0-1.8,0-2.7c0-0.6,0.3-0.9,0.9-0.8c0.7,0,1.3,0,2,0c2.3-0.3,4-2.2,3.9-4.5
		C142.6,103.3,141,101.8,138.5,101.7z M137.3,107.7c-1.4,0-1.4,0-1.4-1.9c0-1.7,0-1.7,1.6-1.7c1.7,0,2.6,0.6,2.5,1.8
		C140.1,107.1,139.2,107.7,137.3,107.7z"/>
</g>
<g id="Layer_3">
	<g>
		<linearGradient id="SVGID_1_" gradientUnits="userSpaceOnUse" x1="62.9744" y1="120.8723" x2="63.0137" y2="13.868">
			<stop  offset="0" style="stop-color:#2A191F"/>
			<stop  offset="1" style="stop-color:#EA3339"/>
		</linearGradient>
		<path class="st1" d="M95.1,14.1c0,15.3,0,56.5,0,56.5c0,17.7-14.4,32.1-32.1,32.1c-17.7,0-32.1-14.4-32.1-32.1
			c0,0,0-40.3,0.1-56.6C14.9,24.5,4.3,42.6,4.3,63.2C4.3,95.7,30.6,122,63,122c32.4,0,58.7-26.3,58.7-58.7
			C121.7,42.6,111.1,24.5,95.1,14.1z"/>
		<linearGradient id="SVGID_2_" gradientUnits="userSpaceOnUse" x1="62.9956" y1="19.7957" x2="62.9956" y2="113.0658">
			<stop  offset="0" style="stop-color:#2A191F"/>
			<stop  offset="1" style="stop-color:#EA3339"/>
		</linearGradient>
		<path class="st2" d="M95.1,21.7c0,18.3,0,48.9,0,48.9c0,17.7-14.4,32.1-32.1,32.1c-17.7,0-32.1-14.4-32.1-32.1
			c0,0,0-30.2,0.1-48.9c-12.4,9.6-20.5,24.7-20.5,41.6c0,29,23.5,52.5,52.5,52.5c29,0,52.5-23.5,52.5-52.5
			C115.5,46.3,107.5,31.3,95.1,21.7z"/>
	</g>
</g>
<g id="Layer_3_copy">
	<linearGradient id="SVGID_3_" gradientUnits="userSpaceOnUse" x1="62.6389" y1="80.847" x2="63.0541" y2="2.251">
		<stop  offset="0" style="stop-color:#2A191F"/>
		<stop  offset="1" style="stop-color:#EA3339"/>
	</linearGradient>
	<path class="st3" d="M63,4.5c-2.5,0-5.1,0.2-7.5,0.5c0,13,0,66.2,0,66.2c0,4.1,3.3,7.4,7.4,7.4c4.1,0,7.4-3.3,7.4-7.4
		c0,0,0-53.8,0-66.2C67.9,4.7,65.4,4.5,63,4.5z"/>
</g>
</svg>
