<?xml version="1.0" encoding="utf-8"?>
<!-- Generator: Adobe Illustrator 18.1.1, SVG Export Plug-In . SVG Version: 6.00 Build 0)  -->
<!DOCTYPE svg PUBLIC "-//W3C//DTD SVG 1.1//EN" "http://www.w3.org/Graphics/SVG/1.1/DTD/svg11.dtd">
<svg version="1.1" id="Layer_1" xmlns="http://www.w3.org/2000/svg" xmlns:xlink="http://www.w3.org/1999/xlink" x="0px" y="0px"
	 viewBox="0 0 499.5 93.3" enable-background="new 0 0 499.5 93.3" xml:space="preserve">
<g>
	<polygon fill-rule="evenodd" clip-rule="evenodd" fill="#EE3124" points="0.1,0.3 22.6,0.3 22.6,30.5 40.1,30.5 40.1,0.1 62.4,0.1 
		62.4,73.2 40.1,73.2 40.1,39.7 22.4,39.7 22.4,72.8 0.1,72.8 0.1,0.3 	"/>
	<polygon fill="none" stroke="#EE3425" stroke-width="0.216" stroke-miterlimit="2.6131" points="0.1,0.3 22.6,0.3 22.6,30.5 
		40.1,30.5 40.1,0.1 62.4,0.1 62.4,73.2 40.1,73.2 40.1,39.7 22.4,39.7 22.4,72.8 0.1,72.8 0.1,0.3 	"/>
	<path fill-rule="evenodd" clip-rule="evenodd" fill="#EE3124" d="M105.5,30.4c0.6,1.6,1.3,4.7,1.3,8.8c0.1,7.2,0.1,15.7-0.1,17.4
		c-0.3,3.4-1.5,8.3-4.4,10.8c-2.9,2.4-6.4,1.4-8.6-1.9c-2.2-3.3-3-6.4-2.8-15.7c0.2-9.3-0.3-15.8,1.4-19.6c1.8-3.8,3.6-5.4,5.2-5.7
		C101.1,23.7,103.8,26.1,105.5,30.4L105.5,30.4z M98,18.2c0,0,7.3-0.4,13.1,1.9c5.8,2.3,10.2,4.9,14.3,11.9c4.1,7,4.5,17.1,1.7,25.4
		c-2.9,8.2-8.6,12.3-12.5,14.4c-3.9,2.1-9.9,3.2-15.8,3.2c-5.9,0-13.5-1.3-18.7-5.4c-5.1-4.1-8.5-8.5-10.1-14.6
		c-1.6-6-2.5-16.9,3.9-25.4c6.4-8.5,14.6-10.1,18.3-10.8C95.5,18.1,97.7,18.2,98,18.2L98,18.2z"/>
	<path fill="none" stroke="#EE3425" stroke-width="0.216" stroke-miterlimit="2.6131" d="M105.5,30.4c0.6,1.6,1.3,4.7,1.3,8.8
		c0.1,7.2,0.1,15.7-0.1,17.4c-0.3,3.4-1.5,8.3-4.4,10.8c-2.9,2.4-6.4,1.4-8.6-1.9c-2.2-3.3-3-6.4-2.8-15.7
		c0.2-9.3-0.3-15.8,1.4-19.6c1.8-3.8,3.6-5.4,5.2-5.7C101.1,23.7,103.8,26.1,105.5,30.4L105.5,30.4z M98,18.2c0,0,7.3-0.4,13.1,1.9
		c5.8,2.3,10.2,4.9,14.3,11.9c4.1,7,4.5,17.1,1.7,25.4c-2.9,8.2-8.6,12.3-12.5,14.4c-3.9,2.1-9.9,3.2-15.8,3.2
		c-5.9,0-13.5-1.3-18.7-5.4c-5.1-4.1-8.5-8.5-10.1-14.6c-1.6-6-2.5-16.9,3.9-25.4c6.4-8.5,14.6-10.1,18.3-10.8
		C95.5,18.1,97.7,18.2,98,18.2L98,18.2z"/>
	<path fill-rule="evenodd" clip-rule="evenodd" fill="#EE3124" d="M155.8,34.8v38.1l-20.9,0v-53h21V27c0,0,2.8-4.2,7-6.2
		c4.2-2,11.6-3.9,19.1-0.7c7.5,3.2,8.7,9.9,8.9,12.4l0,40.3h-20.6V36c0-1.3,0-3.5-1.7-5.6c-1.2-1.4-4.6-2.3-7.4-0.8
		C158.3,31.2,155.4,34.4,155.8,34.8L155.8,34.8z"/>
	<path fill="none" stroke="#EE3425" stroke-width="0.216" stroke-miterlimit="2.6131" d="M155.8,34.8v38.1l-20.9,0v-53h21V27
		c0,0,2.8-4.2,7-6.2c4.2-2,11.6-3.9,19.1-0.7c7.5,3.2,8.7,9.9,8.9,12.4l0,40.3h-20.6V36c0-1.3,0-3.5-1.7-5.6
		c-1.2-1.4-4.6-2.3-7.4-0.8C158.3,31.2,155.4,34.4,155.8,34.8L155.8,34.8z"/>
	<path fill-rule="evenodd" clip-rule="evenodd" fill="#EE3124" d="M200.5,32.5c4.2-8.4,14.8-15,27.8-14.4
		c13.1,0.7,20.6,5.4,25.2,14.2c3.9,7.5,3.4,17.3,3.3,17.3l-37.7-0.1v10.8c0,0,0.4,2.2,1.2,3.3c0.9,1.1,4.3,5.5,14.5,3.9
		c11.3-1.8,11-9.8,11.2-9.8l9,0c0,0-0.1,5.4-3.8,8.9c-3.7,3.5-10.3,7.2-17.7,7.9c-7.4,0.8-17.8,1-26.2-6c-4.9-4.1-7.1-8.6-8.6-12.6
		C196.9,50.8,196.3,40.9,200.5,32.5L200.5,32.5z M219.1,42.6c0,0-0.1-6.9,0.5-10.2c0.6-3.3,2.4-6,4.1-7.2c2-1.4,6-1.6,8.1,0.6
		c2.2,2.2,2.6,4.1,2.9,5c0.3,1,0.9,4.1,0.8,7c0,3,0,4.7,0,4.8H219.1L219.1,42.6z"/>
	<path fill="none" stroke="#EE3425" stroke-width="0.216" stroke-miterlimit="2.6131" d="M200.5,32.5c4.2-8.4,14.8-15,27.8-14.4
		c13.1,0.7,20.6,5.4,25.2,14.2c3.9,7.5,3.4,17.3,3.3,17.3l-37.7-0.1v10.8c0,0,0.4,2.2,1.2,3.3c0.9,1.1,4.3,5.5,14.5,3.9
		c11.3-1.8,11-9.8,11.2-9.8l9,0c0,0-0.1,5.4-3.8,8.9c-3.7,3.5-10.3,7.2-17.7,7.9c-7.4,0.8-17.8,1-26.2-6c-4.9-4.1-7.1-8.6-8.6-12.6
		C196.9,50.8,196.3,40.9,200.5,32.5L200.5,32.5z M219.1,42.6c0,0-0.1-6.9,0.5-10.2c0.6-3.3,2.4-6,4.1-7.2c2-1.4,6-1.6,8.1,0.6
		c2.2,2.2,2.6,4.1,2.9,5c0.3,1,0.9,4.1,0.8,7c0,3,0,4.7,0,4.8H219.1L219.1,42.6z"/>
	<path fill-rule="evenodd" clip-rule="evenodd" fill="#EE3124" d="M390.5,32.5c4.1-8.4,14.8-15,27.8-14.4
		c13.1,0.7,20.6,5.4,25.2,14.2c3.9,7.5,3.3,17.3,3.3,17.3l-37.6-0.1v10.8c0,0,0.4,2.2,1.2,3.3c0.8,1.1,4.3,5.5,14.5,3.9
		c11.3-1.8,11-9.9,11.2-9.9l9,0c0,0-0.1,5.4-3.8,8.9c-3.7,3.5-10.3,7.2-17.7,7.9c-7.4,0.8-17.8,1-26.2-6c-4.9-4.1-7.1-8.6-8.6-12.6
		C386.9,50.8,386.3,40.9,390.5,32.5L390.5,32.5z M409.1,42.6c0,0-0.1-6.9,0.5-10.2c0.6-3.3,2.4-6,4.1-7.2c2-1.4,6-1.6,8.1,0.6
		c2.2,2.2,2.6,4.1,2.9,5c0.3,1,0.9,4.1,0.8,7c0,3,0,4.7,0,4.8H409.1L409.1,42.6z"/>
	<path fill="none" stroke="#EE3425" stroke-width="0.216" stroke-miterlimit="2.6131" d="M390.5,32.5c4.1-8.4,14.8-15,27.8-14.4
		c13.1,0.7,20.6,5.4,25.2,14.2c3.9,7.5,3.3,17.3,3.3,17.3l-37.6-0.1v10.8c0,0,0.4,2.2,1.2,3.3c0.8,1.1,4.3,5.5,14.5,3.9
		c11.3-1.8,11-9.9,11.2-9.9l9,0c0,0-0.1,5.4-3.8,8.9c-3.7,3.5-10.3,7.2-17.7,7.9c-7.4,0.8-17.8,1-26.2-6c-4.9-4.1-7.1-8.6-8.6-12.6
		C386.9,50.8,386.3,40.9,390.5,32.5L390.5,32.5z M409.1,42.6c0,0-0.1-6.9,0.5-10.2c0.6-3.3,2.4-6,4.1-7.2c2-1.4,6-1.6,8.1,0.6
		c2.2,2.2,2.6,4.1,2.9,5c0.3,1,0.9,4.1,0.8,7c0,3,0,4.7,0,4.8H409.1L409.1,42.6z"/>
	<path fill-rule="evenodd" clip-rule="evenodd" fill="#EE3124" d="M254.9,19.9h22.8l9.7,25.2l10.4-25.2l28.6,0.1l9.2,29.7l8.1-29.8
		H362l9,29.3l8-29.3h9.4l-14.6,53h-17.2L347.1,42L338.7,73h-17.6l-15.7-51.2l-22,54c0,0-3.2,8.8-7.1,12.3c-3.9,3.5-8.2,6-15.2,4.8
		c-7.1-1.3-9.9-4.9-10.4-9.3c-0.5-4.3,1.7-8.9,6.7-9.9c5-1,8.2,1,9.4,3.4c1.2,2.4,1.4,5.2,0.7,6.7c-0.7,1.5-1.8,2.5-1.8,2.5
		s2.8,0.7,5.4-2c2.6-2.7,4-6.6,4.5-8.1c0.4-1.5,0.4-2.1,0.4-2.1L254.9,19.9L254.9,19.9z"/>
	<path fill="none" stroke="#EE3425" stroke-width="0.216" stroke-miterlimit="2.6131" d="M254.9,19.9h22.8l9.7,25.2l10.4-25.2
		l28.6,0.1l9.2,29.7l8.1-29.8H362l9,29.3l8-29.3h9.4l-14.6,53h-17.2L347.1,42L338.7,73h-17.6l-15.7-51.2l-22,54
		c0,0-3.2,8.8-7.1,12.3c-3.9,3.5-8.2,6-15.2,4.8c-7.1-1.3-9.9-4.9-10.4-9.3c-0.5-4.3,1.7-8.9,6.7-9.9c5-1,8.2,1,9.4,3.4
		c1.2,2.4,1.4,5.2,0.7,6.7c-0.7,1.5-1.8,2.5-1.8,2.5s2.8,0.7,5.4-2c2.6-2.7,4-6.6,4.5-8.1c0.4-1.5,0.4-2.1,0.4-2.1L254.9,19.9
		L254.9,19.9z"/>
	<polygon fill-rule="evenodd" clip-rule="evenodd" fill="#EE3124" points="453,0.1 473,0.1 473,73 453,73 453,0.1 	"/>
	<polygon fill="none" stroke="#EE3425" stroke-width="0.216" stroke-miterlimit="2.6131" points="453,0.1 473,0.1 473,73 453,73 
		453,0.1 	"/>
	<polygon fill-rule="evenodd" clip-rule="evenodd" fill="#EE3124" points="479.3,0.2 499.3,0.2 499.3,73.1 479.3,73.1 479.3,0.2 	
		"/>
	<polygon fill="none" stroke="#EE3425" stroke-width="0.216" stroke-miterlimit="2.6131" points="479.3,0.2 499.3,0.2 499.3,73.1 
		479.3,73.1 479.3,0.2 	"/>
</g>
</svg>
